<svg width="254" height="80" viewBox="0 0 254 80" fill="none" xmlns="http://www.w3.org/2000/svg">
<g clip-path="url(#clip0_81_66)">
<path d="M179.612 33.1719H183.552V38.934H190.196V42.6002H183.552V51.888C183.552 53.6287 183.98 54.8999 184.835 55.7018C185.691 56.5037 187.06 56.9059 188.942 56.9083H190.196V60.6068H188.884C185.787 60.6068 183.465 59.9358 181.918 58.5937C180.371 57.2516 179.598 55.2312 179.601 52.5326L179.612 33.1719Z" fill="#74706F"/>
<path d="M232.654 42.6362H230.955C228.193 42.6362 225.993 43.288 224.354 44.5917C223.583 45.2231 222.962 46.0168 222.536 46.9156C222.11 47.8145 221.889 48.7962 221.889 49.7902C221.889 50.7843 222.11 51.766 222.536 52.6648C222.962 53.5637 223.583 54.3573 224.354 54.9887C226.002 56.2924 228.199 56.9443 230.944 56.9443H232.643V60.6068H230.673C226.752 60.6068 223.619 59.6153 221.274 57.6321C218.929 55.649 217.763 53.008 217.775 49.7092C217.764 47.9797 218.194 46.2758 219.025 44.7574C219.881 43.2007 221.102 41.8727 222.582 40.8859C223.629 40.189 224.787 39.6727 226.006 39.359C227.532 39.0155 229.094 38.8594 230.658 38.8944H232.628L232.654 42.6362Z" fill="#74706F"/>
<path d="M235.365 60.6068V28.9475H239.302V41.0012C240.134 40.1962 241.109 39.5504 242.176 39.0961C243.195 38.6823 244.285 38.4719 245.386 38.4766C248.116 38.4766 250.234 39.3698 251.741 41.156C253.247 42.9423 254 45.456 254 48.6972V60.6068H250.063V48.0778C250.063 46.2195 249.611 44.7886 248.708 43.785C247.804 42.7814 246.518 42.2808 244.851 42.2832C244.09 42.2607 243.333 42.4112 242.639 42.7232C241.945 43.0352 241.332 43.5005 240.845 44.0839C239.814 45.2844 239.299 46.8846 239.302 48.8845V60.6068H235.365Z" fill="#74706F"/>
<path d="M204.042 38.9988C197.896 38.9988 192.879 43.839 192.879 49.8028C192.879 55.7666 197.878 60.6068 204.042 60.6068C206.201 60.6209 208.318 60.0119 210.137 58.8532C211.956 57.6946 213.4 56.0359 214.294 54.0776H209.67C209.027 54.9664 208.181 55.6908 207.203 56.1916C206.225 56.6924 205.141 56.9552 204.042 56.9587C202.338 56.9367 200.699 56.3067 199.422 55.1834C198.146 54.06 197.315 52.5176 197.083 50.8364H215.157C215.203 50.4927 215.221 50.1458 215.212 49.7992C215.205 43.8426 210.212 38.9988 204.042 38.9988ZM204.042 42.4921C205.567 42.5076 207.047 43.0139 208.26 43.9355C209.473 44.8571 210.354 46.1446 210.773 47.606H197.311C197.73 46.1455 198.612 44.8591 199.825 43.9383C201.038 43.0175 202.517 42.5115 204.042 42.4957V42.4921Z" fill="#74706F"/>
<path d="M96.555 24.2838C94.0788 26.6931 92.8208 30.3196 92.8208 35.059V60.6284H100.991V46.8749H114.532V39.1068H100.991V34.3171C100.991 32.3327 101.464 30.8886 102.437 29.9055C103.409 28.9223 104.808 28.4649 106.735 28.4649H114.529V20.6608H107.595C102.74 20.6608 99.0276 21.8817 96.555 24.2838Z" fill="#3F3F3E"/>
<path d="M153.935 24.2622C151.459 26.6751 150.204 30.3016 150.204 35.0373V60.6068H158.374V46.8533H171.916V39.0852H158.371V34.3171C158.371 32.3291 158.844 30.885 159.816 29.9018C160.789 28.9187 162.188 28.4613 164.115 28.4613H171.908V20.632H164.968C160.12 20.632 156.404 21.8601 153.935 24.2622Z" fill="#3F3F3E"/>
<path d="M132.361 20.6537C129.943 20.6263 127.559 21.2244 125.442 22.3895C123.746 23.34 122.278 24.6454 121.138 26.2159C119.997 27.7864 119.213 29.5846 118.837 31.4865C118.498 33.4605 118.349 35.4624 118.393 37.4647V60.5528H126.613V47.6421H132.101C136.12 47.6421 139.511 46.3528 142.179 43.8138C143.491 42.5836 144.529 41.0928 145.227 39.4377C145.924 37.7826 146.265 36.0001 146.228 34.2055C146.248 32.4159 145.897 30.6414 145.198 28.993C144.498 27.3447 143.464 25.858 142.161 24.6259C140.879 23.3424 139.35 22.3293 137.666 21.6468C135.983 20.9644 134.178 20.6266 132.361 20.6537V20.6537ZM126.613 35.2067C126.613 33.0459 127.134 31.3712 128.168 30.1936C129.201 29.016 130.492 28.5262 132.256 28.5262C132.997 28.5064 133.734 28.6381 134.421 28.9131C135.109 29.1881 135.733 29.6006 136.254 30.1252C136.787 30.6401 137.206 31.2598 137.485 31.945C137.763 32.6301 137.896 33.3657 137.874 34.1046C137.874 35.8333 137.328 37.1694 136.211 38.1922C135.094 39.2149 133.496 39.7623 131.454 39.7623H126.613V35.2067Z" fill="#3F3F3E"/>
<path d="M43.9939 50.3214L45.5194 38.1849L47.4931 21.8529C47.9867 18.6124 49.5818 15.6389 52.0118 13.4294C54.5139 11.1573 57.7757 9.89522 61.1612 9.88926H61.2118C68.0903 9.87784 74.9444 10.7039 81.6218 12.349C79.6577 9.14854 77.0177 6.41245 73.8854 4.33075C70.753 2.24904 67.2033 0.871642 63.4828 0.294217C59.7623 -0.283209 55.9602 -0.0468146 52.3407 0.986979C48.7211 2.02077 45.3708 3.82718 42.5226 6.28073C40.2592 8.23278 38.361 10.5689 36.9158 13.1809C35.5317 15.6908 34.5925 18.4198 34.1396 21.2479L31.9959 38.257L30.4776 50.3286L28.8834 63.5059C28.4838 66.1183 27.1977 68.5154 25.2396 70.298C23.2226 72.1318 20.5922 73.1513 17.8615 73.1575V73.1575C17.6229 73.1575 17.3879 73.1575 17.1385 73.1287C12.9419 73.0918 8.75389 72.744 4.60913 72.0879C4.83687 72.3724 5.07546 72.6497 5.33212 72.9234C7.35861 75.1568 9.83371 76.9409 12.5969 78.16C15.36 79.3791 18.3496 80.006 21.3716 80V80C26.5555 80.0057 31.5686 78.1535 35.4952 74.7817C39.215 71.5883 41.6876 67.1922 42.4792 62.3643L44.0047 50.3214" fill="#B4CC0E"/>
<path d="M81.0975 14.2468C77.0788 13.2554 72.9908 12.568 68.8681 12.1905C69.8645 12.8714 70.7674 13.6789 71.554 14.5926C73.9817 17.44 75.2096 21.1127 74.9805 24.8417C74.7514 28.5707 73.0831 32.0668 70.3249 34.598C67.9285 36.7691 64.8357 38.0212 61.5985 38.1309H47.6737L47.6448 38.3326L46.1519 50.235H60.3116C66.2762 50.0981 72.0051 47.8878 76.5065 43.9867C80.6207 40.4597 83.4715 35.695 84.6284 30.4119C85.7852 25.1288 85.1854 19.6142 82.9194 14.7006L81.0975 14.2468Z" fill="#3F3F3E"/>
<path d="M4.97426 69.9703C6.99501 70.2908 9.04106 70.5321 11.098 70.6906C10.5103 70.2344 9.96907 69.7217 9.48208 69.16C7.52441 66.8636 6.53425 63.9017 6.71887 60.8945C6.90349 57.8872 8.24857 55.0677 10.4726 53.026C12.4252 51.3032 14.9284 50.3269 17.5362 50.271H28.3412L28.3701 50.0009L29.8667 38.1381H20.7173C15.7596 38.2856 11.0032 40.1253 7.24444 43.3493C3.52169 46.5246 1.05107 50.9132 0.272556 55.7335C-0.505956 60.5539 0.45818 65.493 2.99327 69.6714L4.97426 69.9703Z" fill="#3F3F3E"/>
</g>
<defs>
<clipPath id="clip0_81_66">
<rect width="254" height="80" fill="white"/>
</clipPath>
</defs>
</svg>
