<svg width="975" height="414" viewBox="0 0 975 414" fill="none" xmlns="http://www.w3.org/2000/svg">
<path d="M256.641 292.174C263.68 292.174 270.132 293.347 275.997 295.693C281.862 297.649 286.164 300.581 288.901 304.491C292.029 308.402 292.42 313.289 290.074 319.155C287.728 324.629 282.449 330.494 274.237 336.751C273.846 336.751 273.846 335.969 274.237 334.405C274.628 332.841 274.433 330.885 273.651 328.539C272.869 325.802 271.696 323.261 270.132 320.914C268.959 318.568 266.612 316.613 263.093 315.049C259.965 313.485 255.859 312.703 250.776 312.703H233.18C234.353 323.652 236.308 334.014 239.045 343.789C242.174 353.174 245.497 360.799 249.016 366.664C252.536 372.138 256.055 376.83 259.574 380.741C263.093 384.651 265.83 387.388 267.786 388.952L271.305 391.298C270.132 392.471 268.372 394.035 266.026 395.991C264.071 397.946 259.77 400.683 253.122 404.202C246.475 407.33 239.632 408.894 232.594 408.894C225.946 408.894 219.885 407.33 214.411 404.202C209.328 401.074 206.004 398.141 204.44 395.404L201.507 390.712C201.116 391.885 200.139 393.644 198.575 395.991C197.402 397.946 194.078 400.683 188.604 404.202C183.52 407.33 177.459 408.894 170.421 408.894C166.12 408.894 161.819 408.308 157.517 407.135C153.607 405.962 150.088 404.593 146.96 403.029C144.223 401.074 141.681 399.314 139.335 397.75C136.989 395.795 135.229 394.231 134.056 393.058L132.296 391.298C133.079 390.516 134.252 389.734 135.816 388.952C137.38 387.779 140.117 385.042 144.027 380.741C147.937 376.439 151.457 371.747 154.585 366.664C157.713 361.19 160.841 353.565 163.969 343.789C167.097 334.014 169.053 323.652 169.835 312.703H51.355L0.32663 265.78L132.296 18.8501C132.687 18.4591 133.274 17.8725 134.056 17.0905C134.838 16.3084 136.402 14.9399 138.748 12.9847C141.485 10.6386 144.223 8.68352 146.96 7.11943C149.697 5.55534 153.216 4.18676 157.517 3.01368C161.819 1.44962 166.12 0.667582 170.421 0.667582C177.459 0.667582 183.52 2.23166 188.604 5.35982C193.687 8.488 197.206 11.6162 199.161 14.7444L201.507 19.4366C201.898 19.0456 202.289 18.4591 202.68 17.677C203.071 16.895 204.049 15.5264 205.613 13.5713C207.568 11.2251 209.523 9.27004 211.478 7.70595C213.825 5.75085 216.757 4.18676 220.276 3.01368C224.187 1.44962 228.488 0.667582 233.18 0.667582C236.308 0.667582 239.436 1.0586 242.565 1.84063C245.693 2.62267 248.43 3.60022 250.776 4.77329C253.122 5.55535 255.468 6.72841 257.814 8.29248C260.161 9.46555 262.116 10.6386 263.68 11.8117C265.244 12.9847 266.612 14.1578 267.786 15.3309C268.959 16.504 269.741 17.4815 270.132 18.2635L271.305 18.8501C270.132 19.6321 268.568 20.6097 266.612 21.7827C265.048 22.9558 262.116 26.2795 257.814 31.7538C253.513 36.8371 249.603 42.7024 246.084 49.3498C242.565 55.9971 239.436 65.3817 236.699 77.5033C233.962 89.234 232.594 102.138 232.594 116.214C232.594 130.291 233.767 142.999 236.113 154.339C238.459 165.288 241.196 173.89 244.324 180.147C247.843 186.012 251.363 191.095 254.882 195.396C258.401 199.307 261.334 201.848 263.68 203.021L267.199 204.781C266.808 205.172 266.221 205.563 265.439 205.954C265.048 206.345 263.68 207.323 261.334 208.887C259.379 210.06 257.423 211.624 255.468 213.579C253.904 215.534 251.949 218.467 249.603 222.377C247.257 225.896 245.106 229.806 243.151 234.108C241.196 238.409 239.241 243.883 237.286 250.53C235.722 256.787 234.549 263.63 233.767 271.059H250.776C258.596 271.059 264.462 269.104 268.372 265.194C272.282 261.284 274.237 257.178 274.237 252.877V247.011C282.449 253.268 287.728 259.328 290.074 265.194C292.42 270.668 292.029 275.36 288.901 279.271C286.164 283.181 281.862 286.309 275.997 288.655C270.132 291.001 263.68 292.174 256.641 292.174ZM168.661 84.5417L72.4701 271.059H169.835C169.053 263.63 167.684 256.787 165.729 250.53C164.165 243.883 162.405 238.409 160.45 234.108C158.495 229.806 156.344 225.896 153.998 222.377C151.652 218.467 149.501 215.534 147.546 213.579C145.591 211.624 143.636 210.06 141.681 208.887C140.117 207.323 138.748 206.345 137.575 205.954L136.402 204.781C137.184 204.39 138.357 203.803 139.921 203.021C141.485 202.239 144.223 199.698 148.133 195.396C152.434 191.095 155.953 186.012 158.69 180.147C161.819 174.281 164.556 165.679 166.902 154.339C169.639 142.999 171.008 130.291 171.008 116.214C171.008 105.266 170.226 94.7083 168.661 84.5417ZM612.731 132.637C618.987 156.099 625.048 173.89 630.913 186.012C637.17 197.743 641.862 203.803 644.99 204.194L649.682 204.781C648.9 205.172 647.923 205.758 646.75 206.541C645.577 206.932 643.231 208.691 639.711 211.819C636.583 214.556 633.65 218.076 630.913 222.377C628.176 226.287 625.439 232.348 622.702 240.559C619.965 248.38 618.01 257.178 616.837 266.953C615.272 281.03 610.58 296.28 602.76 312.703C594.939 329.126 584.968 344.962 572.847 360.212C560.725 375.462 545.28 388.17 526.511 398.337C508.133 408.503 488.972 413.587 469.03 413.587C425.627 413.587 389.653 396.968 361.108 363.731C332.955 330.494 316.923 285.136 313.013 227.656C312.622 225.701 311.84 223.55 310.667 221.204C309.493 218.467 307.147 214.947 303.628 210.646C300.109 206.345 296.199 204.39 291.897 204.781C293.462 204.39 295.221 203.803 297.176 203.021C299.522 201.848 302.651 199.307 306.561 195.396C310.471 191.095 312.817 186.403 313.599 181.32C314.772 170.371 318.096 155.317 323.57 136.157C329.045 116.997 335.105 101.356 341.753 89.234L385.743 72.8111C382.615 82.5866 382.419 90.4071 385.156 96.2724C388.284 101.747 392.39 105.657 397.473 108.003L405.098 110.936C404.316 112.109 403.534 113.673 402.752 115.628C401.97 117.192 400.406 120.711 398.06 126.186C396.105 131.269 394.541 136.352 393.368 141.435C392.195 146.519 391.413 152.384 391.022 159.031C391.022 165.679 391.804 171.74 393.368 177.214C395.323 182.688 398.646 187.967 403.339 193.05C408.422 198.134 414.874 202.044 422.694 204.781C422.303 205.172 421.521 205.758 420.348 206.541C419.566 206.932 417.806 208.3 415.069 210.646C412.332 212.601 409.791 214.752 407.444 217.098C405.489 219.053 402.948 221.79 399.819 225.31C397.082 228.829 395.127 232.543 393.954 236.454C392.781 240.364 391.608 244.861 390.435 249.944C389.262 254.636 389.653 259.719 391.608 265.194C408.031 330.494 433.838 363.145 469.03 363.145C483.889 363.145 497.77 356.693 510.674 343.789C523.578 330.885 533.158 315.44 539.414 297.453C545.671 279.075 548.212 261.479 547.039 244.665C546.257 235.672 544.693 228.047 542.347 221.79C540.392 215.534 538.046 211.428 535.309 209.473C532.571 207.127 529.834 205.563 527.097 204.781C524.751 203.999 522.796 203.803 521.232 204.194L518.886 204.781C520.841 203.608 523.382 201.653 526.511 198.916C529.639 196.178 533.549 190.9 538.241 183.079C542.933 175.259 544.889 167.634 544.107 160.204C542.933 150.82 539.023 138.112 532.376 122.08C525.728 106.048 516.344 90.4071 504.222 75.1572C492.492 59.9074 480.761 52.0869 469.03 51.6959C459.646 50.9139 451.239 52.869 443.809 57.5612C436.771 62.2535 431.688 67.9233 428.56 74.5707C425.822 81.2181 423.867 88.2565 422.694 95.6859C421.521 103.115 422.499 109.176 425.627 113.868C424.454 113.477 423.085 112.891 421.521 112.109C419.957 110.936 417.024 108.785 412.723 105.657C408.813 102.529 405.294 99.2051 402.166 95.6859C399.428 91.7756 397.082 86.6924 395.127 80.436C393.563 73.7886 393.563 66.9457 395.127 59.9073C393.954 60.6894 392.39 61.4714 390.435 62.2535C388.48 63.0355 384.765 64.0131 379.291 65.1861C373.817 66.3592 368.733 66.5547 364.041 65.7727C359.74 64.5996 355.048 61.667 349.964 56.9747C344.881 51.8914 340.971 44.6575 338.234 35.273C338.625 36.8371 339.211 38.4012 339.993 39.9652C340.775 41.1383 342.339 42.7024 344.685 44.6575C347.032 46.6126 349.573 47.9812 352.31 48.7632C355.048 49.1543 358.567 48.7633 362.868 47.5902C367.56 46.4171 372.643 43.8755 378.118 39.9652C380.464 38.0101 385.156 34.4909 392.195 29.4077C399.233 23.9334 403.73 20.6097 405.685 19.4366C408.031 17.8725 411.941 15.5264 417.415 12.3982C423.281 8.87903 428.169 6.72841 432.079 5.94638C436.38 4.7733 441.659 3.60023 447.915 2.42716C454.563 1.25411 461.601 0.667582 469.03 0.667582C484.671 0.667582 502.072 6.14189 521.232 17.0905C540.783 27.6481 559.161 43.4845 576.366 64.5996C593.962 85.3238 606.083 108.003 612.731 132.637ZM338.234 35.273L337.647 34.6865C337.647 34.6865 337.647 34.882 337.647 35.273C338.038 35.273 338.234 35.273 338.234 35.273ZM937.684 292.174C944.722 292.174 951.174 293.347 957.039 295.693C962.905 297.649 967.206 300.581 969.943 304.491C973.071 308.402 973.462 313.289 971.116 319.155C968.77 324.629 963.491 330.494 955.28 336.751C954.889 336.751 954.889 335.969 955.28 334.405C955.671 332.841 955.475 330.885 954.693 328.539C953.911 325.802 952.738 323.261 951.174 320.914C950.001 318.568 947.655 316.613 944.135 315.049C941.007 313.485 936.902 312.703 931.818 312.703H914.222C915.395 323.652 917.35 334.014 920.088 343.789C923.216 353.174 926.54 360.799 930.059 366.664C933.578 372.138 937.097 376.83 940.616 380.741C944.135 384.651 946.873 387.388 948.828 388.952L952.347 391.298C951.174 392.471 949.414 394.035 947.068 395.991C945.113 397.946 940.812 400.683 934.164 404.202C927.517 407.33 920.674 408.894 913.636 408.894C906.988 408.894 900.928 407.33 895.453 404.202C890.37 401.074 887.046 398.141 885.482 395.404L882.55 390.712C882.159 391.885 881.181 393.644 879.617 395.991C878.444 397.946 875.12 400.683 869.646 404.202C864.563 407.33 858.502 408.894 851.463 408.894C847.162 408.894 842.861 408.308 838.56 407.135C834.649 405.962 831.13 404.593 828.002 403.029C825.265 401.074 822.723 399.314 820.377 397.75C818.031 395.795 816.271 394.231 815.098 393.058L813.339 391.298C814.121 390.516 815.294 389.734 816.858 388.952C818.422 387.779 821.159 385.042 825.069 380.741C828.98 376.439 832.499 371.747 835.627 366.664C838.755 361.19 841.883 353.565 845.011 343.789C848.14 334.014 850.095 323.652 850.877 312.703H732.397L681.369 265.78L813.339 18.8501C813.73 18.4591 814.316 17.8725 815.098 17.0905C815.88 16.3084 817.444 14.9399 819.791 12.9847C822.528 10.6386 825.265 8.68352 828.002 7.11943C830.739 5.55534 834.258 4.18676 838.56 3.01368C842.861 1.44962 847.162 0.667582 851.463 0.667582C858.502 0.667582 864.563 2.23166 869.646 5.35982C874.729 8.488 878.248 11.6162 880.203 14.7444L882.55 19.4366C882.941 19.0456 883.332 18.4591 883.723 17.677C884.114 16.895 885.091 15.5264 886.655 13.5713C888.61 11.2251 890.566 9.27004 892.521 7.70595C894.867 5.75085 897.799 4.18676 901.319 3.01368C905.229 1.44962 909.53 0.667582 914.222 0.667582C917.35 0.667582 920.479 1.0586 923.607 1.84063C926.735 2.62267 929.472 3.60022 931.818 4.77329C934.164 5.55535 936.511 6.72841 938.857 8.29248C941.203 9.46555 943.158 10.6386 944.722 11.8117C946.286 12.9847 947.655 14.1578 948.828 15.3309C950.001 16.504 950.783 17.4815 951.174 18.2635L952.347 18.8501C951.174 19.6321 949.61 20.6097 947.655 21.7827C946.091 22.9558 943.158 26.2795 938.857 31.7538C934.555 36.8371 930.645 42.7024 927.126 49.3498C923.607 55.9971 920.479 65.3817 917.742 77.5033C915.004 89.234 913.636 102.138 913.636 116.214C913.636 130.291 914.809 142.999 917.155 154.339C919.501 165.288 922.238 173.89 925.366 180.147C928.886 186.012 932.405 191.095 935.924 195.396C939.443 199.307 942.376 201.848 944.722 203.021L948.241 204.781C947.85 205.172 947.264 205.563 946.482 205.954C946.091 206.345 944.722 207.323 942.376 208.887C940.421 210.06 938.466 211.624 936.511 213.579C934.946 215.534 932.991 218.467 930.645 222.377C928.299 225.896 926.148 229.806 924.193 234.108C922.238 238.409 920.283 243.883 918.328 250.53C916.764 256.787 915.591 263.63 914.809 271.059H931.818C939.639 271.059 945.504 269.104 949.414 265.194C953.324 261.284 955.28 257.178 955.28 252.877V247.011C963.491 253.268 968.77 259.328 971.116 265.194C973.462 270.668 973.071 275.36 969.943 279.271C967.206 283.181 962.905 286.309 957.039 288.655C951.174 291.001 944.722 292.174 937.684 292.174ZM849.704 84.5417L753.512 271.059H850.877C850.095 263.63 848.726 256.787 846.771 250.53C845.207 243.883 843.447 238.409 841.492 234.108C839.537 229.806 837.387 225.896 835.04 222.377C832.694 218.467 830.544 215.534 828.589 213.579C826.633 211.624 824.678 210.06 822.723 208.887C821.159 207.323 819.791 206.345 818.617 205.954L817.444 204.781C818.226 204.39 819.4 203.803 820.964 203.021C822.528 202.239 825.265 199.698 829.175 195.396C833.476 191.095 836.996 186.012 839.733 180.147C842.861 174.281 845.598 165.679 847.944 154.339C850.681 142.999 852.05 130.291 852.05 116.214C852.05 105.266 851.268 94.7083 849.704 84.5417Z" fill="#943B0C"/>
</svg>
