<svg width="137" height="138" viewBox="0 0 137 138" fill="none" xmlns="http://www.w3.org/2000/svg">
<path d="M70.3769 0.785728C76.1113 5.18022 82.2158 10.1781 88.5528 15.8443C94.8781 21.4996 101.375 27.7684 107.88 34.6885C113.473 40.6398 118.561 46.5236 123.18 52.2417C127.805 57.9645 131.947 63.5029 135.648 68.7633L137 70.6848L135.359 72.3663C134.026 73.734 132.622 75.0716 131.154 76.3751C129.68 77.6816 128.188 78.9162 126.681 80.0717L124.582 81.6811L97.389 50.8027L97.3952 50.7973L97.3348 50.7292H97.324C94.9749 48.061 92.6266 45.3936 90.4216 42.9439C86.5863 38.6795 82.7216 34.529 78.8321 30.4931C74.8953 26.4092 70.8904 22.395 66.8188 18.452C65.7345 17.4018 64.5193 16.3276 63.3026 15.6623C62.3809 15.1588 61.4508 14.8885 60.602 15.1124C60.3046 15.1914 59.9885 15.3447 59.6656 15.5368C59.2713 15.7707 58.8485 16.0813 58.428 16.3988C56.6513 17.7433 54.9559 19.1731 53.3542 20.6802C52.3977 21.5794 51.4706 22.508 50.5745 23.463C55.2602 27.835 60.3386 32.6098 65.8221 37.7989C72.0281 43.6719 77.8361 49.2104 83.2243 54.3933C88.7975 59.7551 94.3267 65.1178 99.8116 70.4788C105.272 75.8167 110.689 81.1529 116.061 86.4877L118.531 88.9413L115.628 90.8566C113.396 92.3312 111.285 93.9507 109.316 95.698C107.351 97.4429 105.494 99.3451 103.767 101.385L101.665 103.869L99.498 101.441C95.167 96.5887 80.8295 80.5318 67.3416 65.4849C54.6639 51.341 42.763 38.1149 40.778 36.0811L29.5997 45.8405C34.3047 50.4085 39.0546 55.0989 43.8434 59.9131C49.3926 65.4918 54.9652 71.2084 60.5501 77.062C66.0335 82.8088 71.4976 88.664 76.9315 94.6036C82.3189 100.491 87.4723 106.244 92.4036 111.856L94.0261 113.703L92.4144 115.572C91.0343 117.172 89.5348 118.659 87.9363 120.017C86.3362 121.376 84.6261 122.615 82.8238 123.718L81.0758 124.787L79.5082 123.452C74.2718 118.992 69.0115 114.388 63.755 109.648C58.4915 104.901 53.1172 99.9128 47.64 94.6694C41.3348 88.633 35.2898 82.633 29.502 76.6957C24.144 71.2014 19.0417 65.8008 14.1848 60.5095C12.7853 61.0346 11.3695 61.6883 10.1404 62.5023C8.62473 63.506 7.38551 64.753 6.87899 66.2965C4.96908 72.1161 13.8867 80.6797 32.2748 98.3367L34.9305 100.888C38.5815 104.396 43.3105 108.956 48.9729 114.456C54.595 119.917 61.1209 126.289 68.3864 133.445L64.4164 137.481C57.1857 130.361 50.6613 123.99 45.0253 118.516C39.4296 113.081 34.6881 108.51 31.0046 104.969L28.3496 102.418C8.23047 83.1008 -1.52661 73.7309 1.48928 64.5454C2.45198 61.6108 4.52915 59.4221 7.01218 57.7786C9.28146 56.2753 11.866 55.2429 14.1631 54.5172L15.8871 53.9735L17.1124 55.3149C22.3782 61.0803 27.8601 66.9022 33.5597 72.7473C39.294 78.6288 45.2925 84.584 51.5644 90.5879C56.8813 95.6778 62.2167 100.627 67.5461 105.433C72.3201 109.739 76.9988 113.848 81.5753 117.771C82.5063 117.124 83.4078 116.43 84.2752 115.692C85.0334 115.048 85.7638 114.374 86.4624 113.672C81.9556 108.564 77.3868 103.476 72.7607 98.4188C67.6049 92.7836 62.1711 86.9671 56.4453 80.9655C50.8534 75.1041 45.3111 69.4193 39.8276 63.9064C34.338 58.3874 28.8763 53.01 23.4556 47.7744L21.2351 45.6306L37.0767 31.8012C37.4345 31.4883 37.8217 31.1623 38.315 30.8664C38.9935 30.4598 39.7634 30.1779 40.6788 30.1608L40.723 30.15C40.7276 30.15 42.5709 30.1144 44.2337 31.5596C45.2661 32.4565 57.9966 46.5895 71.5549 61.7154C83.3327 74.854 95.7563 88.7631 101.601 95.3092C102.859 93.9755 104.182 92.6922 105.567 91.463C106.891 90.2873 108.26 89.1721 109.667 88.1218C105.118 83.6151 100.516 79.0873 95.8625 74.538C90.4131 69.2117 84.8917 63.8577 79.2968 58.4749C73.0644 52.4787 67.2843 46.9605 61.9388 41.9022C56.6753 36.9214 50.9146 31.5185 44.6799 25.7145L42.6886 23.8603L44.4576 21.7994C46.0383 19.9584 47.7128 18.2065 49.4709 16.5537C51.2429 14.8885 53.0932 13.3241 55.0101 11.8742C55.5584 11.4591 56.13 11.0432 56.7798 10.6567C57.5009 10.2284 58.2823 9.86593 59.1583 9.63435C61.6158 8.98533 63.9129 9.54993 66.0056 10.6939C67.8032 11.6759 69.3917 13.0638 70.7649 14.3929C74.8837 18.3823 78.9343 22.4422 82.9106 26.5672C86.9333 30.7409 90.8429 34.9372 94.6333 39.1512C97.0823 41.872 99.3315 44.4263 101.58 46.9798L101.573 46.9852L101.633 47.0534H101.645L125.31 73.9261C126.026 73.3375 126.724 72.7419 127.403 72.1386C128.153 71.4733 128.896 70.7855 129.631 70.0776C126.34 65.4756 122.725 60.69 118.765 55.7889C114.24 50.1878 109.249 44.4162 103.752 38.5688C97.3108 31.716 90.9398 25.565 84.7802 20.056C78.6299 14.5578 72.6276 9.64675 66.9366 5.28633L70.3746 0.78418L70.3769 0.785728Z" fill="#61DA4E"/>
</svg>
