<svg width="132" height="137" viewBox="0 0 132 137" fill="none" xmlns="http://www.w3.org/2000/svg">
<path fill-rule="evenodd" clip-rule="evenodd" d="M46.6185 57.4333C49.3615 58.5871 51.0638 58.9012 52.2168 59.8728C54.1925 61.5311 54.2308 63.9959 53.0802 66.0749C52.5326 67.0693 50.8791 67.9839 49.7082 68.0132C43.2399 68.158 38.5057 63.1822 38.6083 56.7058C38.6408 54.8147 38.5619 52.9212 38.5318 51.031C36.6081 51.9757 35.5015 52.9741 35.0906 54.2012C33.0799 60.1747 32.9594 66.3239 34.2801 72.4276C34.6503 74.1315 35.9685 75.6963 37.0695 77.1569C38.4186 78.9422 40.2585 79.4768 42.5466 78.978C50.0833 77.3327 59.38 66.7617 59.9227 59.0705C60.3385 53.1629 56.7761 50.5671 51.4235 53.1303C49.7741 53.9229 48.5657 55.6472 46.6201 57.4357L46.6185 57.4333ZM25.1307 107.258C26.1812 109.824 26.99 112.313 28.1691 114.611C33.5412 125.079 44.4149 130.396 56.6475 128.124C72.2171 125.231 85.8924 118.402 97.5481 107.552C108.157 97.6699 116.58 86.3983 120.676 72.2795C122.944 64.4622 123.867 56.5626 122.213 48.4678C121.64 45.6458 121.202 42.7685 121.022 39.8945C120.213 27.0337 112.686 18.8323 101.639 14.1965C90.2271 9.40861 78.1898 6.69813 65.5333 6.77218C44.9951 6.89342 27.7566 13.9426 15.6452 30.6783C8.3161 40.8083 4.1059 52.5656 4.97007 65.5094C5.10433 67.551 5.37857 69.7171 6.20856 71.5423C9.62861 79.0399 12.9575 86.6066 16.9561 93.7933C20.0881 99.4307 25.5652 102.332 31.7519 104.203C42.829 107.556 53.5562 107.744 64.2615 102.677C74.8479 97.6617 83.719 90.5027 91.896 82.2508C97.2617 76.8379 100.875 70.6236 103.095 63.327C108.193 46.6174 101.978 35.9911 91.2467 27.303C90.7682 26.9133 90.3134 26.4201 89.7584 26.2094C74.7836 20.5427 59.6151 16.5368 44.3531 24.7895C26.3269 34.5378 19.8359 48.2782 20.3412 67.4338C20.5755 76.3814 25.6181 83.5047 32.1962 89.1039C36.8596 93.0732 43.183 92.4637 48.1092 90.2211C59.5655 85.0133 70.4644 78.642 78.6715 68.6536C83.6799 62.5589 84.3683 56.1085 80.5471 49.1293C76.6535 42.0248 71.1162 37.6641 62.6649 38.302C56.7102 38.7536 50.8392 39.6943 44.8462 44.5245C47.0929 44.5562 48.1401 44.5888 49.1874 44.5831C63.4103 44.5131 71.7582 57.9972 65.0719 70.4242C63.4225 73.4846 61.2987 76.3123 59.192 79.0944C55.0884 84.4942 49.5544 85.897 43.187 84.1939C40.4025 83.4469 37.605 82.5803 35.0084 81.3581C29.2172 78.6346 26.641 73.6303 26.0966 67.4908C25.8118 64.2058 25.6718 60.8899 25.7239 57.5952C25.9233 45.5335 33.2865 38.228 43.1333 33.3514C54.7442 27.596 66.4715 29.1217 77.4388 35.489C92.0466 43.9695 94.9458 66.8325 83.4 79.1823C75.4785 87.6514 65.5178 93.0415 55.5018 98.3851C51.8572 100.331 48.0433 100.44 44.1391 98.8807C39.0143 96.8342 33.6739 95.6885 29.056 92.0552C20.6056 85.4023 15.4776 77.2472 14.8242 66.5021C14.2253 56.6375 15.3482 46.5718 20.5503 38.3793C26.7549 28.6009 34.1247 19.6427 46.4533 15.7304C57.6492 12.1777 67.9289 13.3795 78.4966 16.8574C79.8693 17.3073 81.2258 17.8411 82.6359 18.1316C98.0396 21.3295 106.191 32.335 111.843 45.7125C115.397 54.1272 112.221 62.3847 109.995 70.5251C106.597 82.9221 98.4521 91.7655 88.0252 98.5943C82.1811 102.426 75.9179 105.618 69.7703 108.973C59.7396 114.445 49.39 115.131 38.7962 110.672C34.6137 108.919 30.5012 106.996 26.3008 105.289C18.1588 101.98 12.9722 95.852 9.43982 88.0493C7.91004 84.6651 6.43885 81.2361 4.5909 78.0276C-0.862615 68.5478 0.354683 58.4968 2.06755 48.4979C2.76084 44.4806 4.1572 40.4787 5.86031 36.7543C11.1958 25.1027 19.2614 15.5424 29.5573 7.98136C31.9773 6.20257 35.0905 5.11464 38.046 4.35626C55.0445 0.0224085 72.0031 -1.96224 89.1449 4.23013C96.6937 6.95933 104.555 8.68034 111.406 13.2103C122.696 20.6696 130.152 30.3447 131.181 44.3422C131.832 53.1889 132.746 61.9201 130.948 70.814C128.193 84.3835 121.755 95.8773 112.868 106.226C102.023 118.848 88.93 128.161 73.2196 133.844C64.1727 137.118 55.632 137.707 46.1921 134.087C36.4951 130.371 28.5336 125.353 23.2363 116.429C20.8212 112.362 21.1703 110.758 25.1291 107.258H25.1307Z" fill="#C9D7EE"/>
</svg>
