<svg width="137" height="137" viewBox="0 0 137 137" fill="none" xmlns="http://www.w3.org/2000/svg">
<path d="M0.644998 68.816C-0.207482 70.4219 -0.323408 72.8216 0.961914 74.2918C19.5565 95.9244 38.0764 117.927 60.6172 135.596C62.003 136.62 63.9919 136.973 65.2273 135.612C74.7961 125.107 82.9079 113.695 92.9461 103.559C99.0133 97.4467 109.09 88.1472 108.289 78.4735C107.54 69.8431 99.2487 62.3028 93.4912 56.5262C85.1425 48.129 75.8349 40.6255 66.564 33.2957C65.1561 32.2063 63.3096 32.0046 61.967 33.2884C52.812 42.0825 41.0116 47.226 31.1868 55.1939C29.0431 56.9143 29.8443 60.578 31.6042 62.2837C40.3315 70.7447 49.0728 79.2196 57.8081 87.6887C58.723 88.5771 60.4558 88.9982 61.609 88.277C68.3981 83.9875 73.0155 77.3114 79.7385 72.8752C83.6495 70.284 80.616 61.7592 76.3602 64.6108C70.2901 68.6069 65.8722 74.4774 60.064 78.7376C53.388 72.2648 46.7339 65.814 40.0704 59.3536C48.21 53.4978 57.2373 48.9316 64.8334 42.326C70.8697 47.1849 76.8422 52.131 82.5872 57.2987C88.5267 62.6557 98.868 70.419 100.806 78.5946C102.341 85.2097 87.35 97.0557 83.3421 101.073C75.4835 108.927 69.3753 118.012 62.1438 126.325C42.1788 110.173 25.3698 90.6716 8.64011 71.2605C23.0406 47.1563 49.1344 33.4491 65.7717 11.099C88.931 28.1053 110.836 47.5495 130.748 68.1653C134.721 72.2787 138.282 64.5529 134.936 61.1173C114.159 39.5764 91.2148 19.2687 66.9484 1.75179C65.0762 0.407781 63.0316 0.619799 61.7 2.57639C44.5756 27.729 15.2502 41.5242 0.644282 68.8138L0.644998 68.816Z" fill="#FFE388"/>
</svg>
