<svg width="186" height="86" viewBox="0 0 186 86" fill="none" xmlns="http://www.w3.org/2000/svg">
<path d="M4.82186 0.712336C11.2772 7.56815 17.937 14.4768 24.8005 21.4153C31.6904 28.3793 38.8257 35.4157 46.2115 42.5059C53.2181 49.2322 60.0467 55.6278 66.6937 61.7091C72.8304 67.3235 78.9892 72.8321 85.1497 78.2318C92.1384 74.2338 98.7685 69.6931 105.2 64.8746C112.268 59.5806 119.154 53.9143 126.014 48.2642C129.67 45.2547 133.33 42.24 137.307 38.8666C141.112 35.6407 144.801 32.4224 148.26 29.222C152.908 24.9207 157.471 20.3587 161.99 15.6697C164.655 12.903 167.317 10.0758 169.977 7.22391C146.833 8.58468 123.585 9.23481 100.289 9.51173C76.7593 9.79036 53.219 9.68386 29.6889 9.54326C35.2027 15.3544 41.6495 20.3561 48.1065 25.3655C54.6641 30.4532 61.2328 35.5478 67.0209 41.5762C68.887 43.519 70.6891 45.5844 72.4904 47.6481C75.9933 51.6614 79.4953 55.6722 83.5768 58.7916C92.095 52.3755 100.518 45.8792 108.841 39.3046C115.564 33.9953 122.241 28.6187 128.873 23.1773C122.09 23.0768 115.321 22.9873 108.566 22.9064L107.714 22.897C104.625 26.0224 102.302 28.3725 100.323 30.3109C98.2981 32.2937 96.6255 33.8547 94.8685 35.3697C93.7293 36.3522 92.3881 37.5868 90.92 39.1146C89.4604 40.6347 87.8772 42.4454 86.248 44.5858L83.9312 47.6303L81.4167 44.7451C78.1584 41.0045 74.9128 37.3994 71.6843 33.9331C68.3561 30.3612 64.9938 26.8685 61.5992 23.4594L58.1244 19.9701L62.7699 18.3231C65.609 17.3168 68.5248 16.8209 71.4602 16.584C74.1758 16.3658 77.026 16.3812 79.8455 16.4033C87.7997 16.4638 95.7282 16.5397 103.63 16.6274C103.728 16.5473 103.831 16.4732 103.938 16.4025H103.95C104.396 16.1128 104.966 15.9023 105.498 15.8111C105.964 15.7302 106.505 15.7174 106.99 15.8009C107.666 15.9168 108.294 16.1988 108.804 16.6871C118.368 16.8004 127.907 16.9333 137.417 17.085L145.818 17.2196L139.357 22.5877C130.567 29.8909 121.677 37.0909 112.697 44.1853C103.687 51.3019 94.6154 58.2872 85.488 65.1387L83.7242 66.4629L81.8888 65.2359C76.346 61.531 72.078 56.641 67.8048 51.7466C66.0828 49.7732 64.3582 47.7973 62.5313 45.8937C57.0431 40.1788 50.6662 35.2317 44.2994 30.293C35.7037 23.6238 27.125 16.9691 20.3833 8.30519L16.4416 3.2396L22.8603 3.27794C48.6408 3.43557 74.4348 3.59321 100.214 3.28731C125.895 2.98312 151.61 2.2137 177.379 0.514655L185.187 0L179.855 5.74896C175.455 10.495 171.049 15.2445 166.48 19.9872C161.988 24.6489 157.364 29.2654 152.482 33.7831C148.732 37.2537 145.022 40.4967 141.334 43.6238C137.82 46.6044 133.894 49.8371 129.967 53.0708C123.065 58.755 116.138 64.4571 108.935 69.8524C101.67 75.2929 94.1792 80.3858 86.2625 84.7595L84.3624 85.8101L82.7119 84.3693C76.1288 78.6203 69.388 72.6004 62.4981 66.2967C55.5673 59.9564 48.6893 53.5198 41.894 46.9955C34.4946 39.8925 27.3261 32.8229 20.3859 25.8069C13.4219 18.767 6.72369 11.82 0.2854 4.98209L4.82356 0.712336H4.82186ZM99.042 22.8007C92.6182 22.7334 86.2105 22.6746 79.82 22.6261C77.2373 22.6065 74.6206 22.5928 71.9476 22.8075C71.2634 22.8621 70.5818 22.9337 69.9078 23.0248C72.0533 25.2334 74.1664 27.4539 76.2464 29.6872C78.7958 32.4241 81.2702 35.1456 83.6697 37.8518C84.6172 36.7373 85.5434 35.7208 86.4295 34.7971C88.0382 33.1228 89.5234 31.7544 90.7922 30.662C92.4367 29.2441 94.0198 27.7649 95.954 25.8708C96.8879 24.9565 97.9019 23.9459 99.0411 22.8016L99.042 22.8007Z" fill="#EF7A80"/>
</svg>
