<svg width="128" height="89" viewBox="0 0 128 89" fill="none" xmlns="http://www.w3.org/2000/svg">
<path fill-rule="evenodd" clip-rule="evenodd" d="M31.0055 0.884893C29.1486 1.81562 28.645 3.75678 28.5682 4.07288C29.3226 3.70471 29.7272 3.80822 29.9275 3.90615C31.0025 4.4327 30.8191 7.07604 30.2541 8.80333C29.8992 9.88781 29.3737 10.6726 29.0358 11.1168C27.9714 9.69173 27.1958 8.43237 26.6628 7.49714C25.0469 4.6619 25.059 3.7481 25.3571 3.25328C25.435 3.12373 25.6925 2.69544 26.1732 2.60018C26.5424 2.52689 26.8585 2.68666 26.9894 2.76348C26.9511 2.54972 26.7463 1.53381 25.8466 0.967829C24.8611 0.34774 23.4436 0.520683 22.4188 1.45741C22.2842 1.37061 21 0.569544 19.6436 1.13113C19.4368 1.21674 18.5116 1.60024 18.1748 2.60018C17.9533 3.2581 18.102 3.83972 18.1748 4.06935C18.2505 3.93723 18.5158 3.5113 18.9909 3.41625C19.3601 3.34264 19.6709 3.50573 19.8071 3.57945C20.6458 4.03463 20.5622 4.89795 21.9386 7.21019C22.6157 8.42712 23.7779 10.4939 25.6834 13.8632C25.5725 14.1475 25.3498 14.6063 24.9132 15.0394C24.602 15.348 24.2853 15.5411 24.0512 15.6589C24.2511 15.7393 24.5372 15.88 24.8297 16.1243C24.9121 16.1934 25.1627 16.4371 25.4473 16.8421C25.6584 17.1423 25.8421 17.6157 25.9982 18.2609C26.2057 19.1199 26.2382 19.8962 26.2318 20.5308C26.2221 21.5133 26.2036 22.4311 25.7309 23.4352C25.3567 24.2306 24.9807 24.478 24.7632 24.5868C24.4008 24.7684 24.0473 24.7822 23.8285 24.7703C23.985 24.9445 24.9234 25.9572 26.1985 25.9053C26.4136 25.8968 26.854 25.8734 27.3169 25.5885C27.7748 25.3063 28.006 24.9217 28.1016 24.7371C28.1952 24.9247 28.4332 25.3367 28.9192 25.6218C29.3758 25.8895 29.8059 25.9016 30.0377 25.9054C31.2913 25.9258 32.2079 24.9849 32.408 24.7704C32.1914 24.7859 31.8806 24.776 31.5566 24.6369C30.7435 24.2886 30.4508 23.388 30.2547 22.7844C30.0138 22.0438 30.0042 21.4724 30.0042 20.5476C30.0042 19.6687 30.0821 18.9009 30.2381 18.2442C30.3933 17.5882 30.5663 17.115 30.7555 16.8256C30.9923 16.4634 31.2724 16.2309 31.4064 16.1245C31.7091 15.8845 32.0012 15.743 32.213 15.6591C31.9874 15.5694 31.6304 15.3936 31.2893 15.0564C30.8363 14.6076 30.6539 14.1136 30.5806 13.8635C31.4787 13.2252 32.7359 12.2193 34.0084 10.762C35.0329 9.5894 35.7931 8.719 36.2939 7.33417C36.5568 6.60789 37.5798 3.7795 36.0466 1.86994C35.1729 0.781277 33.8912 0.518219 33.6823 0.478465C33.422 0.428747 33.1734 0.407959 32.939 0.407959C31.9814 0.407959 31.2668 0.754167 31.0058 0.884893H31.0055ZM27.1181 16.5113C26.7344 16.1121 26.2507 15.8258 25.7363 15.6163C26.7127 15.1081 27.4424 14.3712 28.0121 13.4332L28.0278 13.4085L28.041 13.4342C28.4973 14.3639 29.1812 15.2286 30.1869 15.5594L30.2731 15.5863L30.1901 15.6209C29.2374 16.061 28.4597 16.9225 28.1059 17.9098L28.0167 18.1923C27.8995 17.5528 27.5824 16.9644 27.1181 16.5113ZM27.2816 16.3439C27.7086 16.7484 27.9813 17.2962 28.1077 17.8655L27.9467 17.8588C28.1179 17.3351 28.3818 16.8278 28.7774 16.4336C29.1681 16.0336 29.6684 15.7755 30.1646 15.5604L30.1679 15.6221C29.6561 15.4647 29.1505 15.2367 28.7538 14.8648C28.3585 14.4875 28.0787 13.9795 28.0117 13.4432L28.0406 13.4443C27.9461 13.988 27.6309 14.481 27.2252 14.8552C26.8185 15.2338 26.3182 15.509 25.7867 15.6317L25.785 15.5955C26.343 15.686 26.8645 15.9612 27.2817 16.3441L27.2816 16.3439ZM28.1584 19.066C28.1584 19.1348 28.1026 19.1904 28.034 19.1904C27.9652 19.1904 27.9097 19.1348 27.9097 19.066C27.9097 18.9972 27.9652 18.9417 28.034 18.9417C28.1026 18.9417 28.1584 18.9972 28.1584 19.066ZM23.3843 5.78667C23.7994 6.34933 24.1569 6.95667 24.4165 7.60676C23.99 7.05621 23.6544 6.43012 23.3843 5.78667ZM25.2134 8.79722C25.6282 9.36009 25.986 9.96689 26.2456 10.6174C25.8194 10.0665 25.4835 9.44067 25.2134 8.79722ZM24.8553 7.76535C24.9475 7.42985 25.055 7.11997 25.2108 6.80837C25.1987 7.15254 25.0693 7.50057 24.8553 7.76535ZM24.3956 7.95018C24.0497 7.94268 23.7049 7.83446 23.4276 7.62551C23.7657 7.70127 24.0841 7.80735 24.3956 7.95018ZM25.22 7.96883C25.4399 7.74434 25.7074 7.59015 26.0026 7.48568C25.7813 7.69484 25.5101 7.90218 25.22 7.96883ZM23.6512 8.71461C23.8695 8.5048 24.1545 8.30368 24.4363 8.23639C24.2121 8.44115 23.9399 8.64603 23.6512 8.71461ZM25.105 8.36883C25.4486 8.10009 25.9457 8.17745 26.3213 8.33314C25.9056 8.31943 25.4954 8.28182 25.105 8.36883ZM24.8132 8.57445C24.4998 8.86558 24.3781 9.24019 24.1623 9.59893C24.2154 9.1969 24.405 8.72671 24.8132 8.57445Z" fill="white"/>
<path fill-rule="evenodd" clip-rule="evenodd" d="M55.6623 1.75465C54.0519 1.87873 52.4576 1.42815 51.1838 1.06802C50.8261 0.967078 50.5326 0.872784 50.3335 0.806457L49.4837 1.06802C48.7696 1.38572 47.1254 2.0012 45.0053 1.75465C43.1024 1.53284 41.7538 0.725985 41.1152 0.283447C41.0357 0.423817 40.5347 1.34468 40.9192 2.39199C41.1713 3.07894 41.6692 3.45215 41.867 3.58502C41.5665 3.68285 41.1181 3.8784 40.7391 4.28804C39.8251 5.27566 39.8823 6.89688 40.494 7.98222C41.0686 9.00145 42.0482 9.40081 42.3409 9.51835C42.8172 9.70983 43.2431 9.77348 43.5343 9.7963C43.4537 9.61875 42.9612 8.48155 43.5179 7.29548C43.9247 6.42841 44.8852 5.55137 46.1164 5.6447C47.0714 5.71713 47.9197 6.35244 48.3256 7.27587C48.3691 7.40563 48.4263 7.59797 48.47 7.83499C48.5262 8.13866 48.5708 8.80043 48.2576 10.1722C48.0344 11.1514 47.8613 11.9093 47.2066 12.5509C46.8618 12.889 46.4988 13.0815 46.2477 13.1906C46.4507 13.3143 46.7469 13.5192 47.0469 13.8296C47.8377 14.6486 48.0692 15.5982 48.2576 16.4161C48.4739 17.3528 48.47 18.0801 48.47 18.737C48.47 19.598 48.3884 20.3933 48.2252 21.1234C48.0616 21.8538 47.8763 22.4203 47.6696 22.8234C47.3981 23.3522 47.1019 23.7237 46.95 23.9021C46.665 24.2364 46.3817 24.4884 46.1494 24.6704C46.2676 24.8014 47.2176 25.8283 48.4375 25.7818C48.6553 25.7734 49.1 25.7577 49.5654 25.4711C50.0126 25.1956 50.2391 24.8199 50.3333 24.6375C50.4251 24.8213 50.6586 25.2246 51.1347 25.5038C51.5816 25.7659 52.0031 25.778 52.2298 25.7818C53.4571 25.8016 54.3548 24.8803 54.5506 24.6704C54.3207 24.5052 54.0176 24.2561 53.7168 23.9021C53.6479 23.8203 53.3664 23.4473 53.0305 22.8234C52.8017 22.3984 52.6057 21.8262 52.4421 21.107C52.2788 20.3879 52.1969 19.598 52.1969 18.7369C52.1969 18.1214 52.2009 17.3637 52.426 16.3997C52.6198 15.5672 52.8379 14.6803 53.5699 13.8826C53.8789 13.5458 54.1886 13.324 54.3999 13.1906C54.1477 13.0819 53.7844 12.89 53.4408 12.5509C52.7896 11.9086 52.6226 11.1458 52.4094 10.1722C52.2974 9.55575 52.0603 8.74632 52.1969 7.83499C52.2157 7.7107 52.2509 7.51461 52.3218 7.27587C52.7305 6.34579 53.5887 5.70963 54.5505 5.6447C55.7826 5.56144 56.7157 6.44727 57.1171 7.27587C57.6931 8.46569 57.2116 9.61672 57.1329 9.7963C57.431 9.7708 57.8631 9.7018 58.3424 9.50207C58.657 9.37102 59.6114 8.97391 60.1732 7.98222C60.7908 6.89088 60.8223 5.27352 59.9116 4.28804C59.5365 3.88194 59.0959 3.68467 58.8002 3.58502C58.9571 3.47733 59.5967 3.01004 59.814 2.11436C60.0406 1.17656 59.6419 0.439997 59.5521 0.283447C57.8728 1.46105 56.4066 1.697 55.662 1.75465H55.6623ZM49.1125 18.7113C49.359 18.1815 49.8185 17.8099 50.388 17.6723C50.9027 17.4847 51.3552 17.1279 51.6632 16.66C51.3552 17.3015 50.7035 17.7105 50.029 17.9012C49.6554 18.0743 49.3584 18.3803 49.1124 18.7113H49.1125ZM49.1125 20.1181C49.359 19.5883 49.8185 19.2167 50.388 19.0791C50.9027 18.8915 51.3552 18.5346 51.6632 18.0668C51.3552 18.7083 50.7035 19.1173 50.029 19.3079C49.6554 19.481 49.3584 19.787 49.1124 20.1181H49.1125ZM49.1125 21.5249C49.359 20.995 49.8185 20.6234 50.388 20.4859C50.9027 20.2983 51.3552 19.9414 51.6632 19.4735C51.3552 20.1149 50.7035 20.5241 50.029 20.7147C49.6554 20.8878 49.3584 21.1936 49.1124 21.5249H49.1125ZM49.1125 22.7909C49.359 22.2611 49.8185 21.8894 50.388 21.7519C50.9027 21.5643 51.3552 21.2074 51.6632 20.7395C51.3552 21.3811 50.7035 21.7901 50.029 21.9807C49.6554 22.1538 49.3584 22.4597 49.1124 22.7909H49.1125ZM50.2851 9.39898C50.1113 9.36952 49.9494 9.25476 49.8734 9.09457C49.7944 8.90469 49.6711 8.77365 49.4979 8.66521C49.7065 8.69232 49.8841 8.86237 49.966 9.0457C50.0322 9.19111 50.1489 9.28358 50.2852 9.35537C50.2868 8.95548 50.2937 8.55538 50.3057 8.1557C49.9799 8.09934 49.9862 7.69152 49.7066 7.53422C50.0521 7.6014 50.0311 7.96893 50.3067 8.12484C50.3212 7.65294 50.3421 7.18137 50.3684 6.71011C50.3924 7.18983 50.4109 7.66998 50.4224 8.15034C50.7542 8.01383 50.709 7.60558 51.0747 7.53422C50.781 7.69934 50.8027 8.1423 50.4228 8.1617C50.4325 8.56952 50.4374 8.97745 50.4365 9.38538C50.5981 9.3093 50.7397 9.212 50.8155 9.04581C50.8975 8.86237 51.0751 8.69242 51.2834 8.66531C51.1106 8.77386 50.9872 8.9048 50.9083 9.09467C50.8238 9.27319 50.6319 9.39545 50.4364 9.40584C50.4349 9.87442 50.4255 10.343 50.407 10.8112C50.6013 10.7178 50.7661 10.5945 50.8615 10.3952C50.9644 10.1653 51.1867 9.9521 51.4481 9.91835C51.2312 10.0544 51.0767 10.2186 50.9779 10.4564C50.8785 10.6767 50.6436 10.8244 50.4056 10.8448C50.3928 11.1611 50.3758 11.4772 50.354 11.7931C50.334 11.478 50.3188 11.1627 50.3078 10.8471C50.0516 10.8471 49.7865 10.6939 49.6794 10.4564C49.5806 10.2186 49.4256 10.0544 49.2089 9.91835C49.4705 9.9521 49.6926 10.1653 49.7958 10.3952C49.9004 10.6134 50.0886 10.7411 50.3075 10.8377C50.2907 10.3584 50.2838 9.87881 50.2851 9.3992V9.39898Z" fill="white"/>
<path fill-rule="evenodd" clip-rule="evenodd" d="M72.5576 1.48031C72.8018 1.65593 73.1588 1.94385 73.5117 2.36753C74.4502 3.49455 74.6758 4.76173 74.8337 5.71421C74.8712 5.94137 74.9674 6.61611 74.9674 7.53826C74.9674 8.9891 74.7668 10.2051 74.3651 11.1868C73.6731 10.8299 72.9143 10.651 72.0891 10.651C71.1739 10.651 70.4266 10.8971 69.8466 11.3874C69.3781 10.3833 69.1439 9.10065 69.1439 7.53826C69.1439 6.64429 69.2342 5.97812 69.2779 5.71421C69.4358 4.76152 69.6613 3.49455 70.5999 2.36753C70.953 1.94385 71.3098 1.65593 71.5538 1.48031C71.482 1.38794 70.6341 0.33453 69.2409 0.420144C68.0215 0.494722 67.3332 1.38366 67.236 1.51385C67.1363 1.37819 66.4822 0.520439 65.313 0.420144C63.895 0.29767 63.0137 1.4008 62.9521 1.48031C63.1883 1.651 63.4977 1.90645 63.8055 2.26702C63.8814 2.35617 64.1682 2.73935 64.5082 3.35483C64.7423 3.77893 64.9436 4.36452 65.1107 5.1118C65.2109 5.55895 65.3677 6.3927 65.3618 7.55487C65.3543 8.99553 65.3475 10.2622 64.6088 11.5549C64.1682 12.3253 63.613 12.8504 63.1856 13.1851C63.5663 13.4422 64.158 13.9193 64.592 14.7008C64.8878 15.2339 64.9864 15.6876 65.1273 16.3241C65.2835 17.0268 65.3618 17.819 65.3618 18.7003C65.3618 19.5821 65.2721 20.3964 65.0941 21.1436C64.9151 21.8914 64.72 22.4712 64.5082 22.8842C64.1949 23.4943 63.8806 23.8801 63.7888 23.9886C63.4878 24.342 63.1877 24.5985 62.9521 24.7749C63.0133 24.8704 63.6996 25.9008 64.986 25.9502C65.8904 25.985 66.7505 25.5212 67.236 24.7416C67.3014 24.846 67.9683 25.869 69.2409 25.9502C70.1574 26.009 71.0421 25.5574 71.5538 24.7749C70.4778 23.8559 69.9914 22.9221 69.7632 22.3651C69.6021 21.9731 69.5159 21.6388 69.4452 21.3611C69.3502 20.9878 69.1259 20.0147 69.1439 18.6835C69.155 17.867 69.1591 17.4332 69.3281 16.8425C69.5011 16.237 69.7436 15.3894 70.5502 14.8215C70.7306 14.6944 71.4173 14.2447 72.3504 14.3306C72.5306 14.3469 73.1136 14.4198 73.6597 14.8215C74.8902 15.7267 74.9385 17.5712 74.9675 18.6834C74.9882 19.4677 74.8896 20.1517 74.8338 20.5075C74.8088 20.6668 74.6984 21.3616 74.499 21.9635C74.3192 22.5069 73.851 23.623 72.5578 24.7747C73.0978 25.5905 74.0282 26.046 74.9691 25.9501C76.1721 25.8274 76.7995 24.8626 76.8755 24.7415C76.9514 24.8651 77.5586 25.8142 78.7331 25.9501C79.6759 26.0594 80.6175 25.6015 81.1595 24.7747C80.9069 24.5924 80.551 24.3003 80.2058 23.8711C79.6485 23.1789 79.419 22.5048 79.2353 21.9635C79.0215 21.3356 78.9354 20.8356 78.8836 20.5075C78.7942 19.9384 78.7496 19.3308 78.7496 18.6834C78.7496 17.8133 78.8277 17.0212 78.984 16.3069C79.1329 15.6271 79.2233 15.1981 79.5029 14.684C79.9169 13.9225 80.4838 13.4482 80.8608 13.1849C80.1374 12.5769 79.7298 11.9644 79.5029 11.5546C78.7692 10.2295 78.7598 8.92041 78.7496 7.53805C78.7442 6.75241 78.817 6.13392 78.8836 5.71399C78.9457 5.32439 79.022 4.85978 79.2184 4.27494C79.3938 3.75343 79.6322 3.06498 80.2058 2.36731C80.5513 1.94685 80.9052 1.66043 81.1595 1.48009C81.0566 1.3453 80.3905 0.50383 79.224 0.41993C77.8039 0.3176 76.9367 1.43252 76.8755 1.51363C76.7705 1.37273 76.123 0.532118 74.9691 0.41993C74.8846 0.411572 74.8019 0.407715 74.7211 0.407715C73.4254 0.407715 72.6158 1.40584 72.5578 1.48009L72.5576 1.48031ZM66.0552 14.027C65.6701 13.6293 65.1851 13.3449 64.6698 13.1375C65.6443 12.6252 66.3709 11.8856 66.937 10.9454L66.9528 10.9206L66.966 10.9464C67.4257 11.874 68.1132 12.7361 69.1201 13.0629L69.2063 13.0895L69.1237 13.1243C68.1725 13.5685 67.398 14.4326 67.0485 15.4217L66.9604 15.7044C66.8403 15.0656 66.5214 14.4781 66.0552 14.0269V14.027ZM66.2181 13.8591C66.6466 14.2618 66.9214 14.8083 67.0501 15.3774L66.889 15.3712C67.0581 14.8469 67.32 14.3385 67.7139 13.943C68.1034 13.5414 68.6025 13.2814 69.0979 13.0643L69.1014 13.1256C68.5891 12.9703 68.0824 12.7442 67.6844 12.3739C67.2875 11.9983 67.0058 11.4913 66.9368 10.9553L66.9657 10.9564C66.8732 11.5004 66.5597 11.9946 66.156 12.3705C65.7506 12.7504 65.2513 13.0279 64.72 13.1528L64.7182 13.1163C65.2767 13.2047 65.7996 13.4779 66.2181 13.8593V13.8591ZM76.1307 14.027C75.7454 13.6293 75.2606 13.3449 74.7451 13.1375C75.7199 12.6252 76.4461 11.8856 77.0124 10.9454L77.0281 10.9206L77.0415 10.9464C77.5012 11.874 78.1886 12.7361 79.1957 13.0629L79.2818 13.0895L79.1989 13.1243C78.2481 13.5685 77.4736 14.4326 77.124 15.4217L77.0359 15.7044C76.9161 15.0653 76.5967 14.4781 76.1307 14.0269V14.027ZM76.2934 13.8591C76.7219 14.2618 76.997 14.8083 77.1256 15.3774L76.9644 15.3712C77.1335 14.8469 77.3954 14.3385 77.7893 13.943C78.1788 13.5414 78.6777 13.2814 79.1733 13.0643L79.1766 13.1256C78.6642 12.9703 78.1581 12.7442 77.7595 12.3739C77.3628 11.9983 77.0813 11.4913 77.0119 10.9553L77.0409 10.9564C76.9487 11.5004 76.6351 11.9946 76.2311 12.3705C75.8261 12.7504 75.3269 13.0277 74.7955 13.1528L74.7935 13.1163C75.3521 13.2047 75.875 13.4779 76.2933 13.8593L76.2934 13.8591ZM66.287 18.14C66.3598 18.239 66.4353 18.3347 66.513 18.4271C66.7385 18.3321 66.9526 18.2208 67.1559 18.0941C66.8056 17.8148 66.5272 17.4466 66.3789 17.0301C66.6509 17.4 66.9576 17.7238 67.3038 17.998C67.6644 17.7536 67.9902 17.4584 68.2859 17.1158C68.1081 17.5138 67.8081 17.8548 67.4443 18.105C67.6439 18.251 67.8566 18.3814 68.0825 18.4953C68.122 18.4522 68.1611 18.4084 68.1997 18.3637C68.1766 18.4156 68.1513 18.4663 68.1242 18.5161C68.2027 18.5548 68.2829 18.5914 68.3647 18.6263C68.2734 18.6133 68.1828 18.5948 68.0933 18.571C67.932 18.8476 67.7103 19.0903 67.4517 19.2856C67.6493 19.4222 67.8592 19.5439 68.0816 19.6501C68.1373 19.5911 68.1922 19.5303 68.2459 19.4681C68.214 19.5396 68.178 19.6091 68.1385 19.6767C68.1828 19.6971 68.2276 19.717 68.2728 19.7361C68.2214 19.7288 68.1702 19.7198 68.1192 19.709C67.9402 20.004 67.692 20.2591 67.404 20.4572C67.6849 20.6627 67.9909 20.837 68.3244 20.9785C67.9456 20.9249 67.577 20.7737 67.2568 20.5513C66.9158 20.7542 66.5302 20.8801 66.1414 20.9044C66.4912 20.7872 66.8151 20.6337 67.1158 20.4463C66.8691 20.2495 66.6579 20.0087 66.5028 19.7379C66.3687 19.7705 66.2322 19.7915 66.0955 19.8002C66.2204 19.7583 66.3421 19.7118 66.4606 19.6607C66.4137 19.5708 66.3727 19.4779 66.3387 19.3823C66.4012 19.4672 66.4653 19.5497 66.5315 19.6295C66.7538 19.5292 66.9648 19.413 67.1653 19.281C66.8816 19.0763 66.6385 18.8152 66.4634 18.5169C66.3701 18.5344 66.2759 18.5462 66.1816 18.5521C66.2664 18.5237 66.3497 18.4931 66.4315 18.4605C66.3749 18.3575 66.3263 18.2505 66.2869 18.14H66.287ZM67.2636 20.3501C67.5433 20.1606 67.8021 19.9404 68.0422 19.6912C67.7875 19.6282 67.5412 19.5223 67.3155 19.3817C67.0951 19.5271 66.8527 19.6394 66.601 19.7117C66.8042 19.9473 67.0244 20.1606 67.2636 20.3502V20.3501ZM68.0289 18.5526C67.7699 18.4758 67.5215 18.3551 67.2971 18.1991C67.0706 18.3337 66.8242 18.4346 66.5705 18.4941C66.7949 18.7514 67.0403 18.9815 67.3087 19.1826C67.5662 18.9989 67.8057 18.7884 68.0289 18.5526ZM75.9891 18.2643C76.0619 18.3634 76.1373 18.4591 76.2151 18.5515C76.4407 18.4565 76.6547 18.3452 76.858 18.2185C76.5079 17.9392 76.2294 17.571 76.0811 17.1545C76.353 17.5244 76.6597 17.8482 77.0059 18.1224C77.3664 17.878 77.6922 17.5828 77.9879 17.2402C77.8102 17.6382 77.5102 17.9792 77.1464 18.2294C77.3462 18.3754 77.5587 18.5057 77.7847 18.6197C77.8243 18.5766 77.8634 18.5328 77.902 18.4881C77.8789 18.54 77.8536 18.5908 77.8265 18.6406C77.905 18.6792 77.9852 18.7159 78.0669 18.7507C77.9756 18.7377 77.8851 18.7192 77.7955 18.6954C77.6342 18.972 77.4126 19.2147 77.154 19.41C77.3517 19.5466 77.5614 19.6683 77.7839 19.7745C77.8396 19.7153 77.8945 19.6546 77.9482 19.5924C77.9163 19.664 77.8803 19.7336 77.8408 19.8012C77.8851 19.8216 77.9299 19.8414 77.9751 19.8605C77.9237 19.8533 77.8726 19.8443 77.8216 19.8334C77.6426 20.1285 77.3944 20.3835 77.1065 20.5816C77.3876 20.7871 77.6935 20.9614 78.0269 21.1029C77.6481 21.0493 77.2796 20.8981 76.9594 20.6759C76.6185 20.8786 76.2325 21.0044 75.8439 21.0287C76.1936 20.9115 76.5175 20.7583 76.8182 20.5707C76.5715 20.3738 76.3605 20.133 76.2054 19.8623C76.0711 19.8949 75.9347 19.9159 75.7979 19.9246C75.9229 19.8827 76.0444 19.8362 76.163 19.7851C76.116 19.6952 76.0752 19.6023 76.0412 19.5067C76.1037 19.5916 76.1679 19.674 76.234 19.7539C76.4563 19.6536 76.6673 19.5374 76.8677 19.4054C76.584 19.2006 76.3407 18.9396 76.1656 18.6411C76.0723 18.6587 75.9782 18.6706 75.884 18.6765C75.9688 18.6481 76.052 18.6175 76.1338 18.5849C76.0772 18.4819 76.0286 18.375 75.9892 18.2643H75.9891ZM76.9658 20.4744C77.2454 20.2849 77.5043 20.0647 77.7444 19.8155C77.4896 19.7525 77.2433 19.6468 77.0176 19.5061C76.7972 19.6515 76.5548 19.7638 76.3031 19.8361C76.5062 20.0717 76.7265 20.285 76.9658 20.4745V20.4744ZM77.7309 18.6772C77.472 18.6003 77.2236 18.4795 76.999 18.3237C76.7727 18.4582 76.5263 18.5589 76.2727 18.6184C76.4971 18.8757 76.7424 19.1055 77.0109 19.3069C77.2683 19.1231 77.5078 18.9128 77.7309 18.677V18.6772ZM66.2868 5.70114C66.3595 5.80015 66.435 5.89583 66.5128 5.98809C66.7384 5.89326 66.9523 5.78204 67.1558 5.65538C66.8055 5.37604 66.5271 5.00776 66.3788 4.59115C66.6508 4.96104 66.9575 5.28496 67.3038 5.55916C67.6643 5.31485 67.9901 5.01954 68.2857 4.67698C68.108 5.07494 67.808 5.4159 67.4442 5.6661C67.6438 5.81215 67.8565 5.94255 68.0824 6.05645C68.1219 6.01338 68.161 5.96955 68.1996 5.92487C68.1765 5.97673 68.1512 6.02742 68.1241 6.07724C68.2026 6.11592 68.2827 6.15257 68.3646 6.18739C68.2733 6.17443 68.1828 6.15589 68.0932 6.1321C67.932 6.40877 67.7103 6.65136 67.4517 6.8467C67.6493 6.98321 67.8591 7.10483 68.0816 7.21112C68.1373 7.15208 68.1922 7.09133 68.2459 7.02918C68.214 7.10065 68.178 7.17019 68.1385 7.23781C68.1827 7.25827 68.2276 7.27809 68.2728 7.29728C68.2214 7.28999 68.1702 7.28099 68.1192 7.27016C67.9402 7.56516 67.692 7.82018 67.404 8.0183C67.6849 8.22382 67.9909 8.39816 68.3244 8.5396C67.9456 8.48602 67.5772 8.33483 67.2569 8.11249C66.916 8.31533 66.5302 8.44123 66.1414 8.46555C66.4912 8.34822 66.815 8.19489 67.1158 8.00748C66.869 7.81064 66.658 7.56976 66.5028 7.29888C66.3686 7.33156 66.2322 7.35257 66.0955 7.36114C66.2204 7.31924 66.342 7.27274 66.4606 7.22173C66.4136 7.13183 66.3727 7.03893 66.3387 6.94346C66.4012 7.02832 66.4653 7.11062 66.5315 7.19055C66.7538 7.09036 66.9649 6.9741 67.1654 6.84209C66.8816 6.63733 66.6384 6.3762 66.4633 6.07778C66.37 6.09524 66.2758 6.10714 66.1816 6.11303C66.2664 6.08463 66.3497 6.0541 66.4314 6.02152C66.3749 5.91866 66.3263 5.81172 66.2869 5.70114H66.2868ZM67.2634 7.91126C67.543 7.7217 67.8017 7.50151 68.042 7.25227C67.7873 7.18927 67.541 7.0834 67.3154 6.94282C67.095 7.08822 66.8526 7.20052 66.6007 7.27274C66.8038 7.50836 67.0241 7.72181 67.2634 7.91136V7.91126ZM68.0286 6.11389C67.7696 6.03706 67.5212 5.91619 67.2967 5.76028C67.0703 5.89497 66.8239 5.9957 66.5701 6.05517C66.7946 6.31244 67.0401 6.54239 67.3086 6.74362C67.566 6.55996 67.8055 6.34951 68.0286 6.11378V6.11389ZM75.9889 5.82543C76.0617 5.92455 76.1371 6.02024 76.2149 6.1126C76.4405 6.01766 76.6543 5.90633 76.8578 5.77968C76.5076 5.50033 76.2291 5.13227 76.0809 4.71566C76.3528 5.08544 76.6594 5.40936 77.0057 5.68356C77.366 5.43915 77.692 5.14395 77.9877 4.80138C77.81 5.19934 77.5099 5.5403 77.1462 5.79039C77.3459 5.93644 77.5584 6.06685 77.7844 6.18086C77.824 6.13778 77.8631 6.09396 77.9017 6.04927C77.8785 6.10114 77.8534 6.15193 77.8261 6.20175C77.9047 6.24043 77.9848 6.27697 78.0666 6.3118C77.9753 6.29883 77.8848 6.28029 77.7952 6.25651C77.6339 6.53317 77.4123 6.77587 77.1537 6.9711C77.3512 7.10772 77.5611 7.22945 77.7836 7.33564C77.8393 7.27649 77.8942 7.21573 77.9479 7.15348C77.9159 7.22505 77.88 7.2946 77.8405 7.36221C77.8847 7.38268 77.9295 7.4025 77.9748 7.42168C77.9233 7.41439 77.8722 7.40539 77.8213 7.39457C77.6424 7.68967 77.3942 7.94469 77.1063 8.1427C77.3873 8.34812 77.6933 8.52245 78.0266 8.66389C77.6477 8.61042 77.2792 8.45923 76.9591 8.237C76.6181 8.43973 76.2321 8.56553 75.8436 8.58985C76.1931 8.47263 76.5171 8.31929 76.8178 8.13188C76.5711 7.93504 76.3601 7.69406 76.2049 7.42318C76.0708 7.45586 75.9344 7.47697 75.7975 7.48554C75.9225 7.44364 76.0441 7.39714 76.1626 7.34603C76.1157 7.25613 76.0749 7.16333 76.0409 7.06786C76.1034 7.15262 76.1674 7.23502 76.2335 7.31485C76.4559 7.21466 76.6669 7.0984 76.8673 6.9665C76.5837 6.76173 76.3404 6.50071 76.1653 6.20229C76.072 6.21986 75.9779 6.23175 75.8837 6.23765C75.9684 6.20925 76.0517 6.17861 76.1335 6.14603C76.0769 6.04306 76.0282 5.93612 75.9889 5.82543ZM76.9656 8.03555C77.2452 7.846 77.5039 7.6258 77.7441 7.37667C77.4894 7.31367 77.2431 7.20791 77.0174 7.06722C76.7969 7.21262 76.5546 7.32481 76.3029 7.39714C76.506 7.63288 76.7263 7.84611 76.9656 8.03566V8.03555ZM77.7308 6.23818C77.4719 6.16136 77.2234 6.04049 76.9989 5.88469C76.7725 6.01927 76.5261 6.11999 76.2724 6.17957C76.4969 6.43684 76.7423 6.66679 77.0107 6.86802C77.2682 6.68436 77.5076 6.47392 77.7308 6.23808V6.23818Z" fill="white"/>
<path fill-rule="evenodd" clip-rule="evenodd" d="M91.4644 0.887358C90.6048 1.20721 89.8714 1.63153 89.2657 2.16022C88.6593 2.68944 88.0971 3.29582 87.5796 3.9787C87.0613 4.66233 86.6478 5.33417 86.3397 5.99551C85.8784 6.98485 85.5953 7.76867 85.5296 7.97954C85.3276 8.62728 85.1613 9.3468 84.8518 10.6908C84.741 11.1706 84.6582 11.5477 84.3888 11.9969C84.1302 12.4279 83.8177 12.7291 83.5719 12.9266C83.944 12.9048 84.3197 12.935 84.6884 13.0034C85.9413 13.1819 86.853 14.196 87.3577 15.2972L87.3118 15.294C87.5328 14.9481 87.7912 14.6268 88.0769 14.3294C88.9062 13.4491 90.1198 12.9089 91.3344 12.9594C91.0386 12.8591 90.5522 12.6406 90.1914 12.1619C89.9564 11.8504 89.8211 11.4904 89.7515 11.0065C89.2738 7.67727 90.9516 5.58223 90.9516 5.58223C91.4907 4.90899 92.5802 3.54912 94.2252 3.54891C95.8774 3.54859 96.9711 4.92067 97.4983 5.58223C97.4983 5.58223 99.3326 7.88375 98.6288 11.1707C98.5334 11.6152 98.3677 11.8886 98.2998 11.9928C97.9629 12.5099 97.477 12.7804 97.1412 12.9195C97.4545 12.9155 97.7692 12.9453 98.0792 13.0008C99.3512 13.1737 100.297 14.1801 100.82 15.2966L100.774 15.2937C101.003 14.944 101.269 14.6209 101.564 14.3224C102.41 13.4495 103.628 12.9199 104.848 12.9578C104.604 12.761 104.267 12.4399 104.004 11.9657C103.64 11.311 103.726 10.9203 103.417 9.63279C103.245 8.91627 103.064 8.38758 102.921 7.97954C102.69 7.31841 102.419 6.65696 102.111 5.99551C101.802 5.33417 101.394 4.66233 100.887 3.9787C100.38 3.29582 99.8235 2.68944 99.2177 2.16022C98.6114 1.63153 97.8729 1.20721 97.0026 0.887358C96.1313 0.568044 95.2057 0.407959 94.2252 0.407959C93.244 0.407959 92.324 0.568044 91.4643 0.887358H91.4644ZM100.86 10.0218C100.953 10.8701 100.956 11.7288 100.849 12.5754C100.749 11.7252 100.76 10.8732 100.86 10.0218ZM99.5373 12.154C99.9927 12.3786 100.429 12.668 100.725 13.0856C100.29 12.8235 99.8784 12.5361 99.5373 12.154ZM102.189 12.154C101.848 12.5361 101.436 12.8235 101.002 13.0856C101.297 12.6679 101.734 12.3786 102.189 12.154ZM87.4259 10.1462C87.5186 10.9944 87.5223 11.8532 87.4151 12.6998C87.3155 11.8496 87.3263 10.9975 87.4259 10.1462ZM86.1033 12.2784C86.5587 12.5029 86.9953 12.7924 87.2908 13.21C86.8563 12.9478 86.4447 12.6605 86.1033 12.2784ZM88.7552 12.2784C88.4138 12.6605 88.0019 12.9478 87.5678 13.21C87.8631 12.7923 88.2997 12.5029 88.7552 12.2784ZM83.5294 12.9603L83.5049 12.9794C83.7958 13.2097 84.1967 13.5851 84.521 14.1456C84.521 14.1456 84.6953 14.4464 84.8202 14.7876C85.2686 16.0138 85.2909 18.3714 85.5296 19.5845C85.9705 21.8257 87.7591 23.2583 88.5916 23.9247C89.1372 24.3617 90.2819 25.1776 91.911 25.6352C93.0894 25.9667 94.0137 25.9682 94.2417 25.9659C94.4295 25.9643 95.1787 25.9507 96.1263 25.718C98.3578 25.1708 99.8911 23.852 100.193 23.5854C100.544 23.2758 102.281 21.6977 103.119 18.9401C103.555 17.5048 103.595 16.2556 103.56 15.4453C103.568 15.1678 103.618 14.6722 103.889 14.13C104.201 13.5073 104.643 13.145 104.875 12.9795L104.875 12.9788C103.279 13.2153 101.691 13.9819 100.793 15.3616C100.435 14.618 99.8669 13.9663 99.1704 13.5515C98.5197 13.1791 97.7589 13.0353 97.0118 12.9696L96.9847 12.9794C97.4471 13.3351 98.4573 14.221 98.7548 15.65C98.8706 16.2061 98.8349 16.6348 98.7932 17.0891C98.7281 17.7991 98.5447 19.8004 96.9847 21.3631C96.4165 21.9322 95.5091 22.8414 94.1902 22.8426C94.1897 22.8426 94.1888 22.8426 94.1883 22.8426C92.8068 22.8426 91.8559 21.8456 91.3956 21.3631C90.0352 19.9362 89.8533 18.1109 89.7516 17.0891C89.7068 16.636 89.6727 16.2673 89.7516 15.7738C89.9809 14.3436 90.916 13.3982 91.3956 12.9794L91.3696 12.971C89.7813 13.1963 88.2071 13.9811 87.3304 15.3618C86.9863 14.6334 86.4421 13.9792 85.7558 13.5573C85.0897 13.1625 84.299 13.0208 83.5294 12.9603Z" fill="white"/>
<path fill-rule="evenodd" clip-rule="evenodd" d="M125.426 0.418781C124.229 0.532363 123.592 1.47037 123.511 1.59478C123.428 1.47016 122.777 0.525076 121.563 0.418781C120.635 0.337989 119.724 0.776777 119.178 1.56113C119.29 1.63389 119.467 1.7569 119.665 1.93059C120.986 3.08773 121.291 4.78587 121.462 5.81035C121.581 6.52356 121.596 7.14708 121.596 7.64094C121.596 9.65615 121.227 11.2014 120.488 12.2763C120.241 12.0301 119.872 11.6716 119.379 11.2014C118.886 10.7309 118.517 10.3616 118.271 10.0928C118.024 9.82427 117.744 9.4771 117.431 9.05149C117.117 8.62642 116.894 8.18388 116.759 7.72473C116.625 7.26602 116.558 6.76744 116.558 6.22996C116.558 4.37152 116.815 2.81545 117.33 1.56113L117.062 1.25864C116.86 1.07959 116.563 0.894858 116.172 0.704449C115.78 0.514683 115.371 0.418781 114.946 0.418781C114.744 0.418781 114.554 0.441605 114.374 0.48618C114.195 0.531291 114.044 0.58176 113.921 0.637372C113.798 0.693412 113.68 0.766276 113.568 0.855641C113.456 0.945327 113.372 1.02944 113.316 1.10756C113.26 1.18642 113.204 1.26432 113.149 1.34286C113.092 1.42151 113.059 1.47702 113.048 1.51066C113.036 1.54431 113.019 1.5727 112.997 1.59478L112.863 1.29229C112.751 1.09063 112.532 0.894858 112.208 0.704449C111.883 0.514683 111.508 0.418781 111.083 0.418781C110.657 0.418781 110.237 0.525398 109.823 0.738095C109.408 0.951327 109.135 1.11913 109 1.24214C108.866 1.36536 108.765 1.47198 108.698 1.56124L108.933 1.72904C109.112 1.84155 109.319 2.04803 109.555 2.35041C109.79 2.6528 110.025 3.0169 110.26 3.44197C110.495 3.8679 110.696 4.45574 110.864 5.2058C111.032 5.9563 111.116 6.77344 111.116 7.65766C111.116 8.54252 111.038 9.33695 110.881 10.0424C110.712 10.8068 110.64 11.2076 110.36 11.6717C109.932 12.3835 109.331 12.7796 108.962 12.9797C109.372 13.3586 109.921 13.9625 110.344 14.8293C110.657 15.471 110.781 16.0087 110.881 16.4585C111.038 17.1637 111.116 17.9587 111.116 18.8433C111.116 19.419 111.102 20.2482 110.847 21.2952C110.645 22.1239 110.38 23.1667 109.538 24.1502C109.222 24.5189 108.912 24.7778 108.698 24.9396C108.776 25.0342 109.683 26.0889 111.097 25.955C112.229 25.8475 112.88 25.0543 112.997 24.906C113.106 25.0412 113.816 25.8942 115.039 25.955C116.399 26.022 117.238 25.0505 117.33 24.9396C117.058 24.7263 116.689 24.4021 116.322 23.9487C114.635 21.8598 114.814 19.2726 114.875 18.3997C115.037 16.0682 116.048 14.374 116.625 13.5527C117.185 14.1354 117.688 14.745 118.136 15.3833C118.584 16.0216 118.959 16.6154 119.262 17.1637C119.564 17.7128 119.827 18.2668 120.051 18.8264C120.275 19.3863 120.448 19.8623 120.572 20.2539C120.72 20.7238 120.804 21.1205 120.857 21.3793C120.935 21.7556 120.988 22.0953 121.025 22.3871C120.896 22.7772 120.66 23.3379 120.219 23.9153C119.858 24.3882 119.476 24.7195 119.178 24.9396C119.272 25.0527 120.096 26.0095 121.444 25.955C122.683 25.9044 123.404 25.0384 123.511 24.906C123.615 25.0373 124.325 25.9002 125.55 25.955C126.897 26.0151 127.721 25.0487 127.81 24.9396C127.281 24.5118 126.689 23.8959 126.248 23.0417C125.907 22.3797 125.774 21.8143 125.661 21.2782C125.503 20.5393 125.425 19.7279 125.425 18.8432C125.425 17.9586 125.498 17.1584 125.644 16.4416C125.763 15.8564 125.868 15.3773 126.148 14.8123C126.575 13.9485 127.185 13.3593 127.686 12.9797C127.292 12.7914 126.64 12.4056 126.181 11.6717C125.882 11.1929 125.795 10.7734 125.644 10.0424C125.498 9.33695 125.425 8.54252 125.425 7.65766C125.425 6.77344 125.509 5.9563 125.677 5.2058C125.845 4.45574 126.035 3.87358 126.248 3.45901C126.528 2.91478 126.833 2.53225 126.987 2.35052C127.28 2.00678 127.572 1.7479 127.81 1.56134C127.312 0.838068 126.504 0.407959 125.66 0.407959C125.582 0.407959 125.504 0.411816 125.425 0.418996L125.426 0.418781ZM112.041 5.65981C112.357 5.00821 113.028 4.59975 113.713 4.43324C114.401 4.27454 115.025 3.93766 115.48 3.38872C115.111 4.00956 114.422 4.36948 113.742 4.53653C113.053 4.6949 112.444 5.07218 112.041 5.65991V5.65981ZM112.055 7.09939C112.371 6.4478 113.042 6.03923 113.727 5.87282C114.415 5.71413 115.039 5.37714 115.494 4.82831C115.125 5.44914 114.437 5.80896 113.756 5.97601C113.068 6.13449 112.458 6.51166 112.055 7.0995V7.09939ZM112.071 8.69907C112.387 8.04737 113.058 7.6388 113.743 7.47239C114.431 7.3137 115.055 6.97681 115.51 6.42787C115.141 7.04871 114.453 7.40853 113.772 7.57569C113.084 7.73406 112.474 8.11134 112.071 8.69918V8.69907ZM112.086 10.1385C112.401 9.48685 113.072 9.07839 113.757 8.91198C114.445 8.75329 115.07 8.41629 115.524 7.86746C115.156 8.4883 114.467 8.84812 113.787 9.01517C113.098 9.17365 112.488 9.55082 112.086 10.1387V10.1385ZM112.101 11.7382C112.417 11.0865 113.088 10.678 113.773 10.5115C114.461 10.3529 115.085 10.0159 115.54 9.46703C115.171 10.0879 114.483 10.4477 113.802 10.6147C113.114 10.7733 112.504 11.1504 112.101 11.7383V11.7382ZM121.572 17.7639C121.856 17.131 122.479 16.7067 123.136 16.5354C123.795 16.3718 124.379 16.0222 124.799 15.4828C124.464 16.0893 123.818 16.4631 123.166 16.6341C122.507 16.7979 121.942 17.1904 121.572 17.7639ZM121.581 19.2032C121.865 18.5706 122.488 18.146 123.145 17.9747C123.804 17.8112 124.388 17.4615 124.808 16.922C124.473 17.5286 123.827 17.9025 123.175 18.0735C122.516 18.2372 121.951 18.6298 121.581 19.2032ZM121.591 20.8025C121.875 20.1696 122.498 19.7453 123.155 19.5739C123.814 19.4105 124.398 19.0608 124.818 18.5213C124.484 19.128 123.837 19.5017 123.186 19.6727C122.526 19.8366 121.961 20.2291 121.591 20.8025ZM121.6 22.2418C121.884 21.609 122.508 21.1846 123.164 21.0133C123.823 20.8498 124.407 20.5002 124.827 19.9606C124.493 20.5672 123.846 20.9411 123.195 21.1121C122.535 21.2758 121.97 21.6684 121.6 22.2418ZM121.61 23.8412C121.894 23.2082 122.518 22.7839 123.174 22.6127C123.834 22.4491 124.417 22.0994 124.837 21.5599C124.503 22.1663 123.856 22.5403 123.205 22.7114C122.545 22.8752 121.98 23.2678 121.61 23.8412Z" fill="white"/>
<path fill-rule="evenodd" clip-rule="evenodd" d="M98.1954 34.4932C96.32 34.6383 94.4628 34.1131 92.9797 33.6938C92.563 33.5758 92.2214 33.4664 91.99 33.3894L91 33.6938C90.1683 34.0639 88.2535 34.7806 85.7844 34.4932C83.5681 34.2355 81.9973 33.2956 81.2537 32.78C81.1611 32.9435 80.5775 34.0159 81.0254 35.2357C81.3188 36.0354 81.8987 36.4705 82.1294 36.6254C81.7794 36.739 81.2572 36.9668 80.8157 37.4438C79.7519 38.594 79.8179 40.4822 80.5304 41.746C81.1998 42.9335 82.3405 43.3982 82.6812 43.5355C83.2363 43.7584 83.7325 43.8327 84.071 43.859C83.9773 43.652 83.4038 42.3276 84.052 40.9466C84.526 39.9369 85.6443 38.9151 87.0785 39.024C88.1905 39.108 89.1785 39.8481 89.6514 40.9237C89.7018 41.0749 89.769 41.2986 89.8197 41.5745C89.8849 41.9285 89.9367 42.6992 89.5721 44.297C89.3122 45.4371 89.1105 46.3196 88.3484 47.0671C87.9974 47.4109 87.6308 47.6254 87.3485 47.7587C89.2467 47.584 91.2074 48.7419 91.9481 50.5035C92.3214 49.7085 93.1744 48.9532 93.9906 48.4839C94.7958 48.0277 95.7178 47.7678 96.6337 47.7708C96.3477 47.639 95.9686 47.4223 95.6084 47.0671C94.8504 46.3193 94.6557 45.4304 94.4073 44.297V44.2966C94.2768 43.5787 94.001 42.6362 94.16 41.5745C94.1818 41.4299 94.2228 41.2016 94.3056 40.9237C94.7815 39.8405 95.7812 39.0993 96.9012 39.024C98.336 38.927 99.4227 39.9587 99.8904 40.9237C100.561 42.3093 100 43.6499 99.9086 43.859C100.256 43.8292 100.759 43.7489 101.318 43.5161C101.684 43.364 102.796 42.9013 103.449 41.746C104.169 40.4756 104.205 38.592 103.145 37.4438C102.708 36.9713 102.195 36.7411 101.851 36.6254C102.033 36.4995 102.779 35.9558 103.031 34.9122C103.295 33.8202 102.831 32.9627 102.726 32.7801C100.77 34.1515 99.0625 34.4265 98.1955 34.4933L98.1954 34.4932ZM90.4327 54.1393C90.6717 53.7016 91.0605 53.3266 91.5282 53.1346L92.0075 52.9955C92.6255 52.8014 93.1905 52.4206 93.5823 51.8857C93.2519 52.4619 92.6802 52.8964 92.0411 53.1016C91.3937 53.2461 90.8416 53.6148 90.4326 54.1392L90.4327 54.1393ZM90.4159 55.7245C90.655 55.2868 91.0438 54.9117 91.5117 54.7199L91.9908 54.5807C92.6091 54.3865 93.1738 54.0058 93.5655 53.4709C93.2352 54.047 92.6637 54.4815 92.0246 54.6867C91.3772 54.8312 90.8249 55.1997 90.4158 55.7244L90.4159 55.7245ZM90.3994 57.3096C90.6382 56.872 91.0272 56.4969 91.4949 56.3051L91.9742 56.1659C92.5922 55.9717 93.1571 55.591 93.5488 55.056C93.2183 55.6323 92.6469 56.0668 92.0078 56.272C91.3603 56.4164 90.8083 56.7849 90.3993 57.3095L90.3994 57.3096ZM90.3843 58.7363C90.6232 58.2987 91.0121 57.9236 91.4801 57.7318L91.9592 57.5926C92.5771 57.3984 93.1421 57.0177 93.5338 56.4827C93.2035 57.059 92.6318 57.4935 91.9928 57.6987C91.3452 57.8431 90.7932 58.2116 90.3842 58.7362L90.3843 58.7363ZM87.2964 47.7829L87.2316 47.8116C87.4678 47.9561 87.813 48.1946 88.1622 48.5564C89.0833 49.5101 89.3526 50.6163 89.5722 51.5687C89.8242 52.659 89.8198 53.5069 89.8198 54.2714C89.8198 55.2744 89.7247 56.2007 89.5344 57.0507C89.3443 57.9014 89.128 58.5611 88.8872 59.0305C88.5709 59.6465 88.2261 60.0794 88.0493 60.2866C87.7177 60.6762 87.3875 60.9695 87.1167 61.1814C87.2546 61.3344 88.3609 62.53 89.7817 62.4756C90.0355 62.466 90.5532 62.448 91.0953 62.1142C91.6159 61.7936 91.8798 61.356 91.99 61.1435C92.0969 61.3573 92.3683 61.8273 92.9226 62.152C93.4433 62.4576 93.9338 62.4717 94.1981 62.4756C95.6276 62.499 96.673 61.426 96.9011 61.1814C96.6333 60.9893 96.2802 60.6992 95.9301 60.2866C95.8495 60.1919 95.5218 59.7569 95.1306 59.0305C94.864 58.5355 94.636 57.8695 94.4456 57.0316C94.255 56.1941 94.1599 55.2744 94.1599 54.2714C94.1599 53.5549 94.1647 52.6721 94.4266 51.5493C94.6524 50.58 94.9064 49.5469 95.7588 48.6182C96.1189 48.2258 96.4796 47.9672 96.7255 47.8118L96.6814 47.7924C95.7702 47.9581 94.9007 48.2481 94.1103 48.6961C93.2821 49.1596 92.5555 49.7916 91.9354 50.5325C90.8469 48.9681 89.1843 47.9964 87.2962 47.783L87.2964 47.7829Z" fill="white"/>
<path fill-rule="evenodd" clip-rule="evenodd" d="M36.4286 33.3019C35.4289 33.6738 34.5759 34.1674 33.8706 34.7826C33.1652 35.3983 32.5114 36.104 31.9091 36.8983C31.3065 37.6936 30.8255 38.4754 30.4668 39.2447C29.9301 40.3955 29.6008 41.3073 29.5243 41.5527C29.2893 42.3058 29.0963 43.1432 28.7359 44.7068C28.607 45.265 28.5105 45.7035 28.1972 46.2258C27.8804 46.7541 27.4939 47.1148 27.2019 47.3437C27.6488 47.3089 28.1013 47.3386 28.5453 47.4158C30.0094 47.6081 31.0856 48.7786 31.6881 50.0568C31.6881 50.0565 31.6342 50.0538 31.6342 50.0538C32.5885 48.4237 34.3975 47.2104 36.3286 47.3867L36.3486 47.3691C36.0162 47.2646 35.3979 47.0153 34.948 46.4182C34.6747 46.056 34.517 45.6371 34.4361 45.0743C33.8803 41.2011 35.8324 38.7639 35.8324 38.7639C36.4596 37.9808 37.727 36.3984 39.6405 36.3981C41.5628 36.3979 42.8353 37.9942 43.4485 38.7639C43.4485 38.7639 45.5824 41.4414 44.7635 45.2655C44.6526 45.7824 44.46 46.1003 44.381 46.2217C43.9222 46.9254 43.2265 47.2363 42.851 47.3692L42.859 47.3754C43.3024 47.2883 43.7636 47.2867 44.215 47.3561C45.6357 47.5809 46.8682 48.6343 47.3602 49.9777L47.3094 49.9736C48.2011 48.3184 50.0814 47.1735 51.9772 47.326C51.695 47.0956 51.3147 46.7271 51.0164 46.1897C50.5937 45.428 50.6937 44.9737 50.3334 43.4756C50.1335 42.6424 49.9229 42.0272 49.7568 41.5524C49.4874 40.7828 49.1735 40.0137 48.8141 39.2445C48.4548 38.4751 47.981 37.6934 47.3913 36.8981C46.8007 36.1038 46.1537 35.3981 45.4488 34.7824C44.7433 34.1672 43.8844 33.6735 42.8714 33.3017C41.8582 32.9303 40.7812 32.7439 39.6405 32.7439C38.4993 32.7439 37.4286 32.9303 36.4286 33.3017V33.3019ZM47.4059 44.0034C47.5112 44.9642 47.516 45.9352 47.3937 46.8948C47.2797 45.9282 47.2924 44.969 47.4059 44.0034ZM45.9083 46.4177C46.424 46.6712 46.9195 46.9998 47.2527 47.4722C46.7599 47.1758 46.2938 46.8508 45.9083 46.4177ZM48.911 46.4177C48.5254 46.8508 48.0591 47.1758 47.5665 47.4725C47.8996 46.9996 48.3948 46.6711 48.911 46.4177ZM31.7017 44.0486C31.8213 45.0369 31.8372 46.0369 31.7222 47.0267C31.5935 46.0326 31.596 45.0444 31.7017 44.0486ZM30.1865 46.5523C30.7209 46.8073 31.2345 47.1403 31.5832 47.6235C31.0724 47.3234 30.5885 46.9943 30.1865 46.5523ZM33.2792 46.5184C32.8869 46.969 32.4102 47.309 31.9066 47.6198C32.2443 47.1293 32.7507 46.7853 33.2792 46.5184ZM27.1845 47.3574L27.1692 47.3693C27.5076 47.637 27.9736 48.0743 28.3512 48.7265C28.3512 48.7265 28.5537 49.0761 28.6989 49.4729C29.2209 50.8996 29.2468 53.6423 29.5244 55.0538C30.0375 57.6609 32.1187 59.3274 33.0867 60.1026C33.7215 60.6113 35.0534 61.5599 36.9482 62.093C38.3193 62.4783 39.3945 62.4802 39.66 62.4775C39.8781 62.4756 40.7501 62.4594 41.8524 62.1891C44.4484 61.5524 46.2323 60.0181 46.5834 59.7082C46.9922 59.3475 49.0126 57.512 49.9879 54.3038C50.4951 52.6341 50.5408 51.1811 50.5008 50.2378C50.5099 49.9152 50.568 49.3384 50.8835 48.708C51.2456 47.9834 51.7604 47.5619 52.0308 47.3693L51.9956 47.3411C50.1245 47.5073 48.3905 48.4785 47.3297 50.0456C46.9244 49.1984 46.2872 48.454 45.4695 47.989C44.6941 47.5417 43.7945 47.359 42.9006 47.4077C43.4577 47.8446 44.5746 48.8632 44.9103 50.4767C45.0451 51.1234 45.0032 51.6217 44.9548 52.1504C44.8789 52.9765 44.6656 55.3049 42.8512 57.1227C42.1901 57.785 41.1344 58.8427 39.6001 58.8438C39.599 58.8438 39.5985 58.8438 39.5974 58.8438C37.9903 58.8438 36.8842 57.684 36.3488 57.1227C34.7662 55.463 34.5545 53.3392 34.4364 52.1504C34.384 51.6237 34.3445 51.1942 34.4364 50.6204C34.6949 49.0087 35.724 47.9259 36.2951 47.4167C34.4477 47.6167 32.633 48.5165 31.6579 50.1337C31.2468 49.2884 30.6036 48.532 29.7981 48.0483C29.0282 47.5679 28.0267 47.4819 27.1846 47.3574H27.1845Z" fill="white"/>
<path fill-rule="evenodd" clip-rule="evenodd" d="M20.1647 32.7256C18.771 32.858 18.0296 33.9502 17.9348 34.0948C17.8386 33.9502 17.0807 32.8494 15.666 32.7256C14.5849 32.6313 13.5249 33.1427 12.8886 34.0556C13.0186 34.1405 13.2249 34.2838 13.4561 34.486C14.9945 35.8335 15.3504 37.8115 15.5489 39.0042C15.687 39.8351 15.705 40.5611 15.705 41.1358C15.705 43.483 15.2748 45.2827 14.4142 46.5343C14.1269 46.2476 13.6967 45.8299 13.1233 45.2827C12.5495 44.7349 12.119 44.3045 11.8326 43.9916C11.5452 43.6785 11.2195 43.2747 10.8546 42.7789C10.4891 42.2837 10.2286 41.7687 10.0723 41.2338C9.9155 40.6995 9.83728 40.1189 9.83728 39.4929C9.83728 37.3287 10.137 35.5166 10.737 34.0555L10.4243 33.7038C10.1893 33.4952 9.84339 33.28 9.38745 33.0582C8.93099 32.8367 8.45491 32.7256 7.95976 32.7256C7.72499 32.7256 7.50318 32.7521 7.29456 32.804C7.08561 32.8567 6.90945 32.9152 6.76641 32.9799C6.62304 33.0454 6.48599 33.1302 6.3558 33.2343C6.22507 33.339 6.12735 33.4365 6.06252 33.5277C5.99705 33.6195 5.93158 33.7103 5.86676 33.8013C5.8015 33.8932 5.76228 33.958 5.74942 33.9969C5.73592 34.0361 5.71632 34.0691 5.69081 34.0949L5.53405 33.7433C5.40332 33.5083 5.14916 33.2803 4.77155 33.0585C4.3932 32.8369 3.95602 32.7259 3.46087 32.7259C2.96518 32.7259 2.47636 32.8502 1.99396 33.0977C1.51113 33.3458 1.19214 33.5413 1.03559 33.6844C0.879039 33.8278 0.761708 33.9519 0.683594 34.0557L0.957582 34.2516C1.16589 34.3823 1.40762 34.6231 1.68161 34.9752C1.95517 35.3273 2.22905 35.7515 2.50282 36.2466C2.77638 36.7423 3.01137 37.4266 3.20681 38.3001C3.40269 39.1742 3.5003 40.1258 3.5003 41.1556C3.5003 42.1862 3.40879 43.1117 3.22642 43.933C3.02926 44.8231 2.94515 45.2902 2.62005 45.8301C2.12168 46.6594 1.42134 47.1205 0.99112 47.3535C1.46902 47.7948 2.1085 48.498 2.60044 49.5077C2.96476 50.2552 3.11038 50.881 3.22642 51.4049C3.40869 52.2264 3.5003 53.1522 3.5003 54.182C3.5003 54.8527 3.48423 55.8181 3.18731 57.0377C2.95254 58.0029 2.64244 59.2174 1.66179 60.3626C1.29415 60.792 0.93358 61.0933 0.683808 61.282C0.775316 61.3919 1.83151 62.6203 3.4778 62.464C4.79609 62.3392 5.5543 61.4152 5.69103 61.2428C5.81747 61.4002 6.6449 62.3937 8.06863 62.464C9.65266 62.5424 10.6296 61.4108 10.7372 61.282C10.4199 61.0331 9.99029 60.6558 9.56351 60.1279C7.59759 57.6956 7.80664 54.6821 7.87714 53.6655C8.06563 50.9504 9.24312 48.9773 9.91561 48.0211C10.5673 48.6993 11.154 49.4097 11.676 50.1529C12.1972 50.8962 12.6344 51.5874 12.9867 52.2261C13.3385 52.8655 13.6446 53.5107 13.9055 54.1622C14.166 54.8144 14.3685 55.3688 14.5122 55.825C14.6843 56.3719 14.7821 56.8338 14.8446 57.1351C14.9354 57.5736 14.9971 57.9692 15.0402 58.3089C14.8897 58.7637 14.6151 59.4163 14.1014 60.0886C13.6806 60.6394 13.2354 61.0256 12.8886 61.282C12.9981 61.4133 13.9583 62.528 15.5281 62.464C16.9715 62.4058 17.8111 61.397 17.9349 61.2428C18.0566 61.3956 18.8825 62.4005 20.3103 62.464C21.8788 62.5342 22.8377 61.4088 22.9419 61.282C22.3253 60.784 21.6355 60.0664 21.1232 59.0718C20.7256 58.3006 20.571 57.6421 20.4384 57.0181C20.2555 56.1574 20.1647 55.2126 20.1647 54.182C20.1647 53.1522 20.2487 52.2201 20.4188 51.3852C20.5576 50.7037 20.68 50.1458 21.0057 49.4881C21.5033 48.4819 22.2139 47.7958 22.7968 47.3535C22.3383 47.1345 21.5786 46.685 21.0447 45.8301C20.7879 45.4186 20.665 45.0443 20.5475 44.5338C19.8143 45.4779 18.7672 46.1804 17.6317 46.5516C16.2235 46.8505 15.0492 47.6583 14.1578 48.787C14.8422 47.4776 16.1188 46.5922 17.5563 46.314C18.6802 45.9667 19.7214 45.3273 20.5275 44.446C20.4926 44.2895 20.4574 44.12 20.4188 43.933C20.2488 43.1116 20.1647 42.1862 20.1647 41.1556C20.1647 40.1258 20.2622 39.1742 20.4579 38.3001C20.6535 37.4266 20.8748 36.7491 21.1232 36.2659C21.4488 35.632 21.8035 35.1867 21.9835 34.9751C22.3249 34.5746 22.6639 34.2735 22.9419 34.0557C22.3621 33.2139 21.4212 32.7129 20.4378 32.7129C20.347 32.7129 20.2558 32.7172 20.1647 32.7259V32.7256ZM14.1216 52.2088C14.8061 50.8994 16.0826 50.0141 17.5201 49.7359C18.8561 49.3232 20.0748 48.4978 20.9212 47.3442C20.2048 48.5974 18.9642 49.526 17.5955 49.9736C16.1873 50.2726 15.0128 51.0803 14.1216 52.2089V52.2088ZM4.44463 39.025C4.80499 38.2875 5.56812 37.8282 6.34444 37.641C7.12472 37.4623 7.83418 37.0836 8.35183 36.463C7.93136 37.1652 7.14883 37.5697 6.37734 37.7575C5.59673 37.9358 4.90314 38.3598 4.44453 39.0249L4.44463 39.025ZM4.46135 40.6499C4.8217 39.912 5.58484 39.453 6.36116 39.2659C7.14155 39.0872 7.85089 38.7084 8.36865 38.0879C7.9484 38.79 7.16533 39.1944 6.39416 39.3824C5.61377 39.5607 4.91964 39.9847 4.46124 40.6498L4.46135 40.6499ZM4.47999 42.4552C4.84067 41.7173 5.60348 41.2584 6.38001 41.0712C7.1604 40.8923 7.86954 40.5138 8.38751 39.893C7.96705 40.5953 7.18419 40.9997 6.4127 41.1877C5.63209 41.3659 4.9385 41.79 4.47989 42.4551L4.47999 42.4552ZM4.49682 44.08C4.85728 43.3421 5.62031 42.8833 6.39662 42.696C7.17701 42.5172 7.88647 42.1385 8.40412 41.5179C7.98398 42.2201 7.20091 42.6246 6.42963 42.8125C5.64902 42.9907 4.95532 43.4147 4.49671 44.0799L4.49682 44.08ZM4.51546 45.8853C4.87614 45.1474 5.63895 44.6884 6.41548 44.5013C7.19555 44.3225 7.90533 43.9439 8.42298 43.3232C8.00251 44.0255 7.21977 44.4299 6.44827 44.6177C5.66788 44.796 4.97397 45.22 4.51535 45.8852L4.51546 45.8853ZM15.6334 52.7134C15.9617 51.9948 16.6766 51.5195 17.4249 51.3271C18.176 51.1438 18.8446 50.7526 19.3269 50.1411C18.9416 50.8293 18.2015 51.2476 17.459 51.44C16.7073 51.6233 16.059 52.0626 15.6334 52.7134ZM15.6448 54.3379C15.973 53.6193 16.6884 53.144 17.4365 52.9518C18.1876 52.7683 18.8562 52.3771 19.3381 51.7656C18.9531 52.4537 18.213 52.8723 17.4706 53.0645C16.7189 53.2478 16.0702 53.6872 15.6448 54.3379ZM15.6576 56.1429C15.986 55.4243 16.7009 54.949 17.4492 54.7568C18.2003 54.5734 18.8689 54.1822 19.3512 53.5707C18.9658 54.2588 18.2258 54.6773 17.4833 54.8696C16.7317 55.0529 16.0833 55.4923 15.6576 56.1429ZM15.6691 57.7675C15.9976 57.049 16.7127 56.5736 17.4608 56.3813C18.2119 56.1978 18.8805 55.8066 19.3627 55.1952C18.9774 55.8834 18.2374 56.3019 17.4948 56.494C16.7432 56.6775 16.0945 57.1168 15.6691 57.7675ZM15.6819 59.5725C16.0104 58.8539 16.7254 58.3786 17.4736 58.1863C18.2247 58.0029 18.8932 57.6117 19.3755 57.0002C18.9901 57.6884 18.2501 58.1068 17.5075 58.2991C16.7563 58.4825 16.1073 58.9218 15.6819 59.5725Z" fill="white"/>
<path fill-rule="evenodd" clip-rule="evenodd" d="M56.837 34.1311C57.3272 34.5469 58.0572 35.2555 58.678 36.3046C60.7482 39.8021 59.5065 43.5318 59.3684 43.9249C58.7704 45.6285 57.771 46.8261 56.985 47.576L56.9942 47.5822C57.4699 47.4818 57.9666 47.4778 58.4521 47.5523C59.9298 47.7863 61.2123 48.8819 61.7239 50.2797L61.6712 50.2754C62.5931 48.5646 64.5294 47.378 66.4886 47.5185C65.9126 47.1801 64.34 46.1281 63.6334 44.0669C62.6356 41.1555 64.2054 38.6802 64.4059 38.3759C64.5666 38.1284 65.1581 37.2828 66.2188 37.0489C67.8937 36.6799 69.1774 38.1802 69.3669 38.4014C69.4128 38.4551 70.3414 39.6111 70.2876 41.1378C70.2731 41.546 70.2174 42.1585 69.7519 42.6052C69.6376 42.7149 69.5183 42.7951 69.4089 42.8542C70.6591 42.558 72.2047 43.2112 72.7667 44.2965C73.0965 43.5513 73.6278 42.8847 74.2942 42.397C74.9079 41.931 75.6518 41.6282 76.412 41.5558C75.9407 41.406 75.2868 41.1241 74.7144 40.558C73.2539 39.113 74.0313 37.4882 73.0525 35.7561C71.7442 33.442 68.421 32.7723 66.4037 32.8012C64.2604 32.8319 62.6607 33.6651 61.9 34.131C61.7969 33.9834 61.0173 32.9066 59.599 32.8012C59.5251 32.7959 59.4528 32.7932 59.3818 32.7932C57.8165 32.7932 56.8871 34.0601 56.8372 34.131L56.837 34.1311ZM69.2832 42.9153C69.2441 42.9324 69.2073 42.9467 69.1739 42.9586C69.4084 43.0675 69.7618 43.2717 70.0571 43.6438C70.8087 44.5898 70.5334 45.8032 70.4666 46.0984C70.1103 47.6694 68.7415 48.3712 68.6404 48.4209C68.118 48.6779 67.6081 48.7627 67.1619 48.7627C66.3796 48.7627 65.7939 48.5019 65.6845 48.4512C65.8345 48.2852 66.0002 48.1136 66.1827 47.9396C66.3206 47.8087 66.4562 47.6877 66.5886 47.576L66.5231 47.5386C64.5854 47.7171 62.791 48.726 61.6919 50.3502C61.2703 49.469 60.6076 48.6945 59.7569 48.2105C58.9356 47.7369 57.9798 47.5483 57.0333 47.609C57.5325 47.9521 58.2375 48.5289 58.8316 49.4227C60.0103 51.1958 59.9677 53.0339 59.9398 54.2246C59.9202 55.0709 59.8528 56.9539 58.6779 58.9353C58.0597 59.978 57.3437 60.6953 56.8369 61.1343C57.4758 62.0494 58.5401 62.5605 59.6238 62.4639C61.0457 62.3375 61.8043 61.2281 61.8996 61.0833C61.9977 61.2316 62.7457 62.3274 64.1502 62.4639C65.2408 62.5701 66.3167 62.0577 66.963 61.1343C66.4765 60.7159 65.8242 60.0719 65.224 59.1652C64.795 58.5166 63.5595 56.5919 63.6333 53.855C63.7082 51.0741 65.0885 49.1738 65.5822 48.5531C66.7286 49.4029 67.3462 50.2734 67.6964 50.9001C68.5212 52.3767 68.248 53.1926 69.1737 55.8864C69.5798 57.0679 69.7921 57.6864 70.2817 58.4721C70.9498 59.5441 72.0008 61.2306 73.9754 61.6118C75.9645 61.9955 77.536 60.7936 77.6689 60.6883C78.6426 59.919 79.0389 58.9546 79.1861 58.5261C78.9857 58.6115 78.6702 58.7205 78.2723 58.7533C78.2723 58.7533 77.5238 58.8142 76.7457 58.4721C75.7347 58.0276 75.0256 56.7382 74.1601 54.5937C73.7159 53.4935 73.188 52.0621 72.6827 50.3461C74.5542 49.1086 75.1244 47.9244 75.2683 47.0218C75.5079 45.517 74.699 44.2625 75.4528 42.7743C75.748 42.1915 76.1674 41.8058 76.4679 41.5742C76.1123 41.6776 75.7671 41.7976 75.4363 41.9498C74.3283 42.4354 73.417 43.2678 72.7915 44.3097L72.781 44.3271C72.7807 44.3269 72.7675 44.3118 72.7673 44.3116C71.8692 43.3267 70.6048 42.8417 69.2828 42.9154L69.2832 42.9153ZM60.3015 40.3134C60.5174 39.7623 61.012 39.3467 61.5733 39.1785C62.1356 39.0182 62.6068 38.6755 62.9398 38.1952C62.6844 38.7292 62.1589 39.0965 61.6034 39.2632C61.0405 39.4242 60.5937 39.8101 60.3015 40.3134ZM60.3015 41.6394C60.5174 41.0883 61.012 40.6726 61.5733 40.5045C62.1356 40.3443 62.6068 40.0016 62.9398 39.5212C62.6844 40.0552 62.1589 40.4226 61.6034 40.5891C61.0405 40.7502 60.5937 41.1361 60.3015 41.6394ZM60.3015 43.1127C60.5174 42.5617 61.012 42.1461 61.5733 41.978C62.1356 41.8177 62.6068 41.475 62.9398 40.9945C62.6844 41.5286 62.1589 41.896 61.6034 42.0622C61.0405 42.2239 60.5937 42.6095 60.3015 43.1127ZM60.3015 44.4387C60.5174 43.8876 61.012 43.4721 61.5733 43.3039C62.1356 43.1436 62.6068 42.8009 62.9398 42.3205C62.6844 42.8546 62.1589 43.2219 61.6034 43.3885C61.0405 43.5496 60.5937 43.9354 60.3015 44.4387ZM60.3015 45.9121C60.5174 45.3611 61.012 44.9454 61.5733 44.7773C62.1356 44.617 62.6068 44.2743 62.9398 43.7939C62.6844 44.328 62.1589 44.6953 61.6034 44.8619C61.0405 45.0229 60.5937 45.4089 60.3015 45.9121ZM71.7246 59.0813C71.7772 58.3795 72.1948 57.7337 72.7746 57.3463C73.3578 56.9676 73.774 56.4134 73.9848 55.7507C73.9293 56.0925 73.7897 56.4214 73.592 56.7106C73.2056 57.2979 72.4859 57.5441 72.1205 58.1419C71.933 58.4243 71.8097 58.7468 71.7246 59.0812V59.0813ZM69.8728 54.1824C69.8962 53.479 70.2869 52.8166 70.8496 52.4053C71.4168 52.003 71.8099 51.4321 71.9927 50.761C71.9182 51.4614 71.4742 52.0818 70.9168 52.4884C70.3493 52.8923 70.0011 53.5025 69.8728 54.1824ZM70.398 55.6699C70.4217 54.9665 70.8121 54.3041 71.3751 53.8927C71.9423 53.4905 72.3351 52.9196 72.5182 52.2485C72.4768 52.5922 72.3509 52.9266 72.1657 53.2239C71.8037 53.827 71.095 54.1029 70.7546 54.715C70.579 55.0051 70.4692 55.3323 70.398 55.67V55.6699ZM70.9817 57.3226C71.0053 56.6193 71.3958 55.9568 71.9589 55.5455C72.5259 55.1433 72.9187 54.5723 73.102 53.9013C73.0605 54.245 72.9346 54.5794 72.7493 54.8766C72.3875 55.4797 71.6788 55.7556 71.3383 56.3677C71.1627 56.6578 71.0529 56.9852 70.9817 57.3227V57.3226Z" fill="white"/>
<path fill-rule="evenodd" clip-rule="evenodd" d="M118.759 32.7302C116.434 32.7616 114.529 33.4288 113.214 34.0596C113.151 33.9667 112.242 32.6891 110.633 32.7302C109.147 32.7677 108.32 33.8984 108.232 34.0229C108.581 34.1782 109.08 34.4549 109.525 34.9464C110.212 35.7038 110.378 36.564 110.683 38.2533C110.803 38.9203 110.964 39.8346 110.964 41.0662C110.964 42.0893 110.87 43.0186 110.683 43.8535C110.495 44.6894 110.29 45.3199 110.069 45.7457C109.737 46.3848 109.428 46.7191 109.302 46.8455C109.013 47.1348 108.723 47.3312 108.495 47.4612C110.816 46.4408 113.803 47.4948 114.98 49.7431C114.98 49.7429 114.919 49.7385 114.919 49.7385C115.698 48.7564 116.772 48.0075 117.962 47.606C119.062 47.2252 120.28 47.1659 121.406 47.4525C121.68 47.2449 122.128 46.8481 122.453 46.2117C122.601 45.9221 123.232 44.6859 122.637 43.4415C122.202 42.5304 121.365 42.1491 121.091 42.038C121.194 43.1504 120.723 44.1977 119.867 44.7346C118.784 45.4134 117.464 45.0353 116.743 44.4928C115.084 43.2445 115.023 39.9443 116.737 38.3174C118.036 37.0839 119.835 37.3075 120.017 37.3328C122.019 37.614 123.72 39.4241 124.159 41.8846C124.545 41.4711 125.283 40.5651 125.592 39.1941C125.712 38.6658 125.973 37.4277 125.408 36.0543C124.89 34.7965 123.967 34.1259 123.561 33.8381C122.148 32.8386 120.635 32.7249 119.336 32.7249C119.139 32.7249 118.946 32.7276 118.759 32.7302H118.759ZM108.424 47.5087C108.667 47.6588 108.999 47.8963 109.328 48.2515C109.427 48.3593 109.709 48.7256 110.069 49.3512C110.325 49.7949 110.538 50.4253 110.709 51.2435C110.879 52.0621 110.964 52.9825 110.964 54.0052C110.964 55.2094 110.796 56.0943 110.658 56.8437C110.423 58.1108 110.298 58.7562 109.894 59.3241C109.381 60.0465 108.691 60.4226 108.232 60.6169C108.606 61.7616 109.727 62.5 110.913 62.3926C112.069 62.2878 113.023 61.4041 113.219 60.2475C113.897 60.8069 116.312 62.657 119.682 62.4637C120.386 62.4231 124.37 62.1079 125.962 59.1395C126.202 58.691 127.121 56.9756 126.331 55.2611C125.741 53.9818 124.541 53.4428 124.159 53.2893C124.229 53.64 124.299 54.2288 124.115 54.8917C123.628 56.6487 121.697 57.7215 120.017 57.8407C119.591 57.8711 118.783 57.9285 117.945 57.5086C115.62 56.3418 114.659 52.2901 116.242 50.6783C116.924 49.9833 118.199 49.6204 119.313 50.0899C120.347 50.526 121.042 51.5957 121.09 52.8289C121.26 52.7607 122.39 52.2833 122.822 51.0135C122.884 50.8332 123.227 49.7659 122.64 48.674C122.285 48.012 121.758 47.6583 121.477 47.5019C120.924 47.4392 120.371 47.4209 119.824 47.4677C117.982 47.5942 116.252 48.4648 114.977 49.7893L114.946 49.8215C113.415 47.8241 110.87 46.9382 108.424 47.5088V47.5087ZM113.128 51.0089C113.224 51.7983 113.237 52.5942 113.129 53.3817C113.016 52.5992 113.034 51.797 113.128 51.0089ZM113.25 55.0019C113.346 55.7914 113.358 56.5873 113.251 57.3749C113.137 56.5926 113.155 55.7898 113.25 55.0019ZM113.473 53.7836C113.745 53.5095 114.04 53.2529 114.359 53.0379C114.155 53.3694 113.832 53.6432 113.473 53.7836ZM112.916 53.709C112.579 53.5096 112.299 53.2069 112.142 52.8474C112.426 53.1043 112.695 53.3997 112.916 53.709ZM113.72 54.1883C114.059 54.0911 114.414 54.0866 114.761 54.1492C114.428 54.2323 114.04 54.2836 113.72 54.1883ZM111.754 54.0471C112.087 53.9622 112.48 53.923 112.797 54.0143C112.461 54.0908 112.078 54.141 111.754 54.0471ZM113.382 54.5187C113.872 54.4457 114.319 54.8001 114.602 55.1635C114.2 54.9178 113.816 54.6514 113.382 54.5187ZM112.979 54.5585C112.509 54.6712 112.179 54.9728 111.764 55.2054C112.043 54.8359 112.489 54.4802 112.979 54.5585ZM113.128 37.8237C113.224 38.6132 113.237 39.409 113.129 40.1967C113.016 39.4141 113.034 38.6118 113.128 37.8237ZM113.25 41.8168C113.346 42.6063 113.358 43.4022 113.251 44.1898C113.137 43.4075 113.155 42.6047 113.25 41.8168ZM113.473 40.5985C113.745 40.3244 114.04 40.0679 114.359 39.8528C114.155 40.1842 113.832 40.4581 113.473 40.5985ZM112.916 40.5239C112.579 40.3245 112.299 40.0218 112.142 39.6623C112.426 39.9193 112.695 40.2147 112.916 40.5239ZM113.72 41.0033C114.059 40.906 114.414 40.9015 114.761 40.9641C114.428 41.0473 114.04 41.0986 113.72 41.0033ZM111.754 40.862C112.087 40.7772 112.48 40.738 112.797 40.8292C112.461 40.9057 112.078 40.956 111.754 40.862ZM113.382 41.3337C113.872 41.2606 114.319 41.6148 114.602 41.9784C114.2 41.7327 113.816 41.4663 113.382 41.3337ZM112.979 41.3734C112.509 41.4861 112.179 41.7878 111.764 42.0204C112.043 41.6508 112.489 41.295 112.979 41.3734Z" fill="white"/>
<path fill-rule="evenodd" clip-rule="evenodd" d="M6.69124 0.943398C5.98575 1.20603 5.43777 1.52759 5.06263 1.77951C4.9828 1.65971 4.31535 0.693305 3.14214 0.620763C2.09838 0.55615 1.34649 1.24214 1.13679 1.4334C1.005 1.55363 0.906094 1.6656 0.840088 1.7464C1.64373 2.53675 2.56567 3.73096 2.9677 5.32603C3.20858 6.28032 3.21522 7.17794 3.21522 7.73416C3.21522 9.0067 3.02728 9.90142 2.98431 10.0931C2.77161 11.0459 2.56545 11.9164 1.82953 12.6335C1.54526 12.9107 1.26152 13.0873 1.06393 13.193C2.31322 12.8734 3.75366 13.397 4.44811 14.5082L4.28589 14.5085C4.87576 13.5623 5.87484 12.8796 6.95022 12.6738V5.87057C7.42651 4.93996 8.32156 4.34591 9.2795 4.33112C10.4468 4.31258 11.1747 5.16305 11.371 5.39203C12.1162 6.26211 12.5094 7.72356 11.8606 8.68632C11.704 8.91841 11.5138 9.08203 11.3461 9.1955C11.8335 9.06756 12.4268 9.13529 12.8993 9.31552C13.4866 9.54546 14.0344 10.0151 14.2831 10.5798C14.738 9.39331 16.1096 8.50898 17.3857 8.7789C17.1388 8.62213 16.8037 8.36186 16.5184 7.95383C16.2383 7.55329 16.1269 7.18404 16.0474 6.91199C15.8592 6.26768 15.8911 5.86607 15.8505 5.44154C15.7629 4.52742 15.3691 3.86501 15.0585 3.33043C14.0981 1.67407 12.3617 1.01733 11.8915 0.839246C11.0465 0.519719 10.2328 0.407959 9.5043 0.407959C8.17133 0.407959 7.1236 0.78267 6.69113 0.943505L6.69124 0.943398ZM11.1748 9.30201C11.3783 9.39256 11.7047 9.5715 11.9812 9.9116C12.5832 10.6526 12.4578 11.5526 12.4264 11.7755C12.3035 12.6565 11.7729 13.1944 11.6183 13.3428C11.5205 13.4363 11.2182 13.7194 10.7361 13.9224C10.3165 14.0992 9.9118 14.1528 9.57341 14.1528C9.14674 14.1528 8.82592 14.0672 8.71523 14.0355C7.62764 13.7227 7.08148 12.9078 6.95022 12.6993V12.6784C5.93206 13.0502 5.05845 13.726 4.44811 14.6154L4.36571 14.733L4.28589 14.6157C3.60258 13.5549 2.29693 13.0191 1.05632 13.1971L1.04528 13.2029C1.24909 13.328 1.54472 13.5316 1.84614 13.8375C3.2164 15.2269 3.21586 17.208 3.21533 18.72C3.21479 19.9421 3.21426 21.3352 2.37397 22.8436C1.87989 23.7305 1.27438 24.3369 0.840088 24.7077C0.939739 24.8457 1.55436 25.6668 2.65825 25.7852C3.58104 25.8847 4.49912 25.4559 5.06274 24.6746C5.155 24.8094 5.79748 25.7118 6.97626 25.8293C7.9282 25.9243 8.86985 25.4711 9.43358 24.6561C8.51518 23.6343 8.05764 22.6682 7.81751 22.019C7.49563 21.149 7.3753 20.3553 7.22368 19.2639C7.05877 18.0765 6.96512 16.757 6.94326 15.3053C7.14363 15.6601 8.01703 17.1112 9.75611 17.5583C12.074 18.1545 13.9326 16.4539 14.2505 16.1633C14.5213 15.9158 15.4906 14.9767 15.8861 13.5255C16.0413 12.9573 16.1557 12.1361 16.2795 11.2477C16.3867 10.4794 16.4559 9.79524 16.9833 9.24329C17.1726 9.04571 17.3665 8.92109 17.4993 8.84748L17.4945 8.84458C16.2055 8.91337 15.0305 9.513 14.2835 10.583C13.5024 9.65615 12.3709 9.1924 11.175 9.30169L11.1748 9.30201ZM3.84099 7.37285C4.05508 6.90824 4.46997 6.57285 4.96887 6.45423C5.42384 6.28772 5.82491 5.97301 6.09665 5.55919C5.82352 6.12581 5.24843 6.48799 4.65149 6.65643C4.32114 6.80976 4.05883 7.07989 3.84099 7.37295V7.37285ZM3.84099 8.61667C4.05508 8.15206 4.46997 7.81678 4.96887 7.69816C5.42384 7.53165 5.82491 7.21694 6.09665 6.80312C5.82352 7.36963 5.24843 7.73191 4.65149 7.90036C4.32114 8.05369 4.05883 8.32382 3.84099 8.61678V8.61667ZM3.84099 9.8606C4.05508 9.39609 4.46997 9.06071 4.96887 8.94209C5.42384 8.77547 5.82491 8.46087 6.09665 8.04705C5.82352 8.61367 5.24843 8.97584 4.65149 9.14429C4.32114 9.29751 4.05883 9.56775 3.84099 9.86071V9.8606ZM3.84099 10.9801C4.05508 10.5156 4.46997 10.1802 4.96887 10.0616C5.42384 9.8951 5.82491 9.5804 6.09665 9.16657C5.82352 9.73319 5.24843 10.0954 4.65149 10.2638C4.32114 10.4171 4.05883 10.6873 3.84099 10.9802V10.9801ZM3.84099 12.2242C4.05508 11.7595 4.46997 11.4242 4.96887 11.3055C5.42384 11.139 5.82491 10.8242 6.09665 10.4105C5.82352 10.9771 5.24843 11.3393 4.65149 11.5077C4.32114 11.6611 4.05883 11.9312 3.84099 12.2243V12.2242ZM3.99379 18.0449C4.17584 17.5795 4.59373 17.2288 5.06756 17.0868C5.54214 16.9515 5.93978 16.6623 6.22084 16.2565C6.00546 16.7076 5.56196 17.0178 5.09253 17.1582C4.61763 17.2944 4.24024 17.62 3.99368 18.0449H3.99379ZM4.11819 19.1645C4.30024 18.699 4.71814 18.3484 5.19196 18.2065C5.66622 18.071 6.0644 17.7818 6.34535 17.376C6.12997 17.8273 5.68615 18.1374 5.21693 18.2777C4.74193 18.4139 4.36464 18.7397 4.11809 19.1645H4.11819ZM4.11819 20.4083C4.30024 19.943 4.71814 19.5923 5.19196 19.4503C5.66622 19.315 6.0644 19.0257 6.34535 18.62C6.12997 19.0711 5.68615 19.3813 5.21693 19.5218C4.74193 19.6578 4.36464 19.9835 4.11809 20.4083H4.11819ZM3.99379 21.528C4.17584 21.0625 4.59373 20.7119 5.06756 20.5699C5.54214 20.4346 5.93978 20.1453 6.22084 19.7396C6.00546 20.1906 5.56196 20.5008 5.09253 20.6412C4.61763 20.7774 4.24024 21.1031 3.99368 21.528H3.99379ZM3.86928 22.7718C4.05144 22.3067 4.46922 21.9558 4.94316 21.8137C5.41763 21.6784 5.81527 21.3892 6.09644 20.9834C5.88106 21.4345 5.43756 21.7445 4.96834 21.8852C4.49333 22.0213 4.11605 22.347 3.86917 22.7718H3.86928Z" fill="white"/>
<path fill-rule="evenodd" clip-rule="evenodd" d="M40.4592 69.3889C40.271 69.4318 40.079 69.4959 39.8824 69.581C39.6858 69.6669 39.5531 69.7266 39.485 69.7604C39.4167 69.795 39.3654 69.8206 39.3313 69.8374C38.9379 69.5982 38.5705 69.4618 38.2288 69.4272C37.887 69.3934 37.6007 69.4272 37.37 69.53C37.1393 69.6323 36.9253 69.795 36.7291 70.0168C36.5325 70.2391 36.3832 70.4616 36.2805 70.6834C36.1781 70.9057 36.0841 71.1449 35.9984 71.4013C35.9127 71.6575 35.8617 71.8331 35.8449 71.9268C35.8273 72.021 35.8105 72.0936 35.7935 72.1448C36.0499 71.9907 36.2846 71.9055 36.4984 71.8884C36.7122 71.8718 36.8958 71.8973 37.0494 71.9652C37.2034 72.0337 37.3787 72.1958 37.5752 72.4522C37.7715 72.7086 37.9296 72.9354 38.0494 73.1316C38.169 73.3285 38.3572 73.6488 38.6133 74.0929C38.7671 74.3838 38.8953 74.6147 38.9981 74.7851C39.5617 75.7766 40.2884 77.1015 41.1769 78.7592C39.2454 80.1434 37.8442 81.7245 36.9726 83.5017C36.5625 84.4592 36.3742 85.3137 36.4087 86.0653C36.4427 86.8176 36.6396 87.4072 36.9981 87.8346C37.5622 88.5519 38.4426 88.911 39.639 88.911C40.9374 88.911 41.9804 87.9881 42.7664 86.1423L42.6384 86.1933C42.536 86.245 42.4161 86.2751 42.2795 86.2833C42.1425 86.2922 42.0058 86.2833 41.8694 86.2578C41.7321 86.2321 41.6086 86.1294 41.4976 85.9501C41.3864 85.7705 41.3139 85.5271 41.2799 85.2194C41.1939 84.4505 41.2157 83.6427 41.3436 82.7968C41.4718 81.9506 41.7667 81.2629 42.2283 80.733C43.1512 82.4938 43.8177 83.8095 44.2279 84.6811C44.4331 85.0914 44.5397 85.459 44.5483 85.7833C44.5569 86.1082 44.5185 86.3518 44.4331 86.514C44.3472 86.6767 44.219 86.8134 44.0487 86.9243C43.8777 87.0353 43.7538 87.1037 43.6767 87.1292C43.5999 87.1552 43.5358 87.1679 43.4845 87.1679V87.2192C43.5013 87.2535 43.5185 87.3005 43.5358 87.3602C43.5523 87.4203 43.5742 87.4886 43.5999 87.5653C43.6254 87.6421 43.6638 87.7281 43.7151 87.8214C43.7664 87.9157 43.8217 88.0055 43.8819 88.0906C43.9415 88.1765 44.0183 88.2618 44.1125 88.3469C44.2063 88.4328 44.3089 88.5054 44.4203 88.5649C44.531 88.6246 44.6636 88.6801 44.8177 88.7314C44.9717 88.7831 45.1336 88.817 45.3046 88.8343C45.5097 88.8509 45.702 88.838 45.8816 88.7959C46.061 88.7529 46.202 88.6972 46.3045 88.6291C46.4071 88.5605 46.4969 88.4798 46.5736 88.3854C46.6504 88.2915 46.7018 88.2062 46.7275 88.129C46.7533 88.0521 46.7744 87.9669 46.7917 87.8729C46.8085 87.779 46.8171 87.715 46.8171 87.6804V87.6035L46.8684 87.7317C46.8853 87.8176 46.9366 87.92 47.0222 88.0394C47.1076 88.1592 47.2146 88.279 47.343 88.3983C47.471 88.5183 47.6633 88.6203 47.9195 88.706C48.176 88.7914 48.4622 88.8344 48.7786 88.8344C49.0946 88.8344 49.3978 88.7656 49.6885 88.6292C49.9788 88.4925 50.2054 88.3469 50.3679 88.1933C50.5301 88.0394 50.6839 87.8601 50.8293 87.655C50.9744 87.4498 51.0641 87.3047 51.0985 87.2191C51.1326 87.1337 51.1581 87.0652 51.1754 87.0139C50.4745 87.3726 49.2784 86.2279 47.5864 83.5786L46.2532 81.3739L45.4071 79.656C47.4068 78.2548 48.851 76.64 49.7398 74.8106C50.1498 73.8539 50.3335 72.9995 50.2911 72.2471C50.2482 71.4951 50.0559 70.9055 49.7143 70.4783C49.133 69.7602 48.2442 69.4015 47.0482 69.4015C45.7661 69.4015 44.7318 70.3244 43.9459 72.1703L44.0743 72.119C44.1768 72.0677 44.292 72.0381 44.4204 72.0293C44.5485 72.0209 44.6852 72.0293 44.8305 72.0549C44.9758 72.0804 45.1036 72.1831 45.2149 72.3621C45.326 72.5418 45.3987 72.7854 45.4327 73.0931C45.5183 73.8967 45.4927 74.7299 45.3559 75.5929C45.2189 76.4562 44.8945 77.1525 44.3816 77.682C43.3051 75.563 42.5615 74.0928 42.1512 73.2724C41.9631 72.9134 41.8604 72.5847 41.8438 72.2854C41.8267 71.9868 41.8568 71.7601 41.9335 71.6061C42.0103 71.4524 42.1257 71.3203 42.2797 71.2088C42.4335 71.0979 42.5441 71.0293 42.6128 71.0036C42.6811 70.9779 42.7324 70.9569 42.7665 70.9396C42.6643 70.5641 42.5228 70.2519 42.3435 70.0037C42.1644 69.7564 41.972 69.5853 41.7668 69.491C41.5618 69.3973 41.3394 69.346 41.1003 69.3372C41.0611 69.3358 41.0224 69.335 40.9844 69.335C40.7915 69.335 40.6166 69.353 40.4593 69.3884L40.4592 69.3889ZM39.4132 74.313C39.3731 73.8374 39.6087 73.3756 39.9454 73.0528C40.2865 72.7337 40.5225 72.33 40.5949 71.865C40.5963 72.3413 40.3306 72.781 39.9967 73.1019C39.6555 73.4211 39.4442 73.8443 39.4132 74.3129V74.313ZM39.9004 75.1645C39.8603 74.6889 40.0959 74.227 40.4326 73.9044C40.7737 73.5853 41.0097 73.1814 41.0824 72.7166C41.0834 73.1929 40.8179 73.6325 40.4838 73.9533C40.1428 74.2726 39.9315 74.6959 39.9004 75.1644V75.1645ZM40.4417 76.1107C40.4014 75.6352 40.6376 75.1733 40.974 74.8505C41.3153 74.5315 41.5512 74.1273 41.6238 73.6628C41.6249 74.1391 41.3594 74.5788 41.0256 74.8996C40.6842 75.2189 40.4729 75.642 40.4417 76.1106V76.1107ZM40.9292 76.9623C40.8891 76.4866 41.1249 76.0248 41.4614 75.702C41.8024 75.3831 42.0384 74.9792 42.1109 74.5144C42.112 74.9907 41.8466 75.4303 41.5126 75.7511C41.1714 76.0704 40.9599 76.4936 40.9292 76.9622V76.9623ZM41.4706 77.9085C41.4305 77.4329 41.666 76.9711 42.0028 76.6483C42.3439 76.3293 42.5798 75.9255 42.6523 75.4606C42.6537 75.9369 42.388 76.3766 42.0539 76.6974C41.713 77.0167 41.5017 77.4399 41.4706 77.9084V77.9085ZM45.5534 83.5142C45.3887 83.5772 45.1906 83.5607 45.0438 83.4613C44.8794 83.3377 44.7065 83.2878 44.5024 83.2822C44.6958 83.1995 44.935 83.2558 45.0991 83.3721C45.2298 83.4635 45.3776 83.4841 45.5314 83.4767C45.3295 83.1314 45.1324 82.7833 44.9395 82.4328C44.63 82.5502 44.4282 82.1953 44.1074 82.202C44.439 82.0842 44.6082 82.4117 44.9247 82.4058C44.6974 81.9921 44.4757 81.5751 44.2587 81.1558C44.523 81.5568 44.783 81.9609 45.037 82.3687C45.2535 82.0824 45.0068 81.7541 45.2857 81.5069C45.1167 81.7984 45.3606 82.1686 45.043 82.3785C45.2587 82.7248 45.47 83.0737 45.6764 83.4256C45.7771 83.278 45.8497 83.1223 45.8306 82.9406C45.8079 82.7409 45.8743 82.5043 46.0403 82.3748C45.9462 82.5564 45.9068 82.7318 45.9353 82.9354C45.9532 83.1323 45.8499 83.3347 45.6868 83.4431C45.9236 83.8475 46.1538 84.2559 46.3757 84.6688C46.4956 84.4895 46.5747 84.2995 46.5557 84.0793C46.5275 83.8291 46.6108 83.5326 46.8187 83.3704C46.701 83.5979 46.6511 83.8177 46.6872 84.0729C46.7135 84.3131 46.586 84.5598 46.3917 84.6982C46.5414 84.9772 46.6872 85.2581 46.8291 85.5412C46.6517 85.2798 46.4785 85.016 46.3087 84.7499C46.088 84.8802 45.7816 84.8829 45.5688 84.7327C45.3628 84.578 45.1461 84.5155 44.8902 84.5081C45.1328 84.4045 45.4325 84.4751 45.6381 84.6209C45.839 84.7558 46.066 84.7699 46.3037 84.7419C46.0458 84.3377 45.7961 83.928 45.5535 83.5142H45.5534Z" fill="white"/>
<path fill-rule="evenodd" clip-rule="evenodd" d="M59.1484 69.3889C58.9602 69.4318 58.7677 69.4959 58.5716 69.581C58.3747 69.6669 58.2423 69.7266 58.1741 69.7604C58.1053 69.795 58.0543 69.8206 58.0205 69.8374C57.6268 69.5982 57.2598 69.4618 56.918 69.4272C56.576 69.3934 56.2899 69.4272 56.0592 69.53C55.8286 69.6323 55.6143 69.795 55.418 70.0168C55.2215 70.2391 55.0721 70.4616 54.9695 70.6834C54.8671 70.9057 54.7727 71.1449 54.6876 71.4013C54.602 71.6575 54.5504 71.8331 54.5337 71.9268C54.5166 72.021 54.4994 72.0936 54.4824 72.1448C54.7388 71.9907 54.9735 71.9055 55.1876 71.8884C55.4011 71.8718 55.585 71.8973 55.7387 71.9652C55.8924 72.0337 56.0676 72.1958 56.2642 72.4522C56.4605 72.7086 56.6188 72.9354 56.7384 73.1316C56.8579 73.3285 57.0461 73.6488 57.3026 74.0929C57.4563 74.3838 57.5845 74.6147 57.6871 74.7851C58.251 75.7766 58.9774 77.1015 59.8662 78.7592C57.9345 80.1434 56.5334 81.7245 55.6617 83.5017C55.2515 84.4592 55.0632 85.3137 55.0976 86.0653C55.1317 86.8176 55.3285 87.4072 55.6873 87.8346C56.2515 88.5519 57.1315 88.911 58.3277 88.911C59.6266 88.911 60.6693 87.9881 61.4556 86.1423L61.3274 86.1933C61.2249 86.245 61.1051 86.2751 60.9683 86.2833C60.8316 86.2922 60.6947 86.2833 60.5584 86.2578C60.4214 86.2321 60.2977 86.1294 60.1865 85.9501C60.0754 85.7705 60.0026 85.5271 59.969 85.2194C59.8831 84.4505 59.9046 83.6427 60.0329 82.7968C60.1611 81.9506 60.4558 81.2629 60.9171 80.733C61.84 82.4938 62.5066 83.8095 62.9171 84.6811C63.1223 85.0914 63.2286 85.459 63.2373 85.7833C63.2459 86.1082 63.2075 86.3518 63.1223 86.514C63.0364 86.6767 62.908 86.8134 62.7375 86.9243C62.5665 87.0353 62.4428 87.1037 62.3659 87.1292C62.2889 87.1552 62.225 87.1679 62.1734 87.1679V87.2192C62.1902 87.2535 62.2074 87.3005 62.225 87.3602C62.2416 87.4203 62.2631 87.4886 62.2889 87.5653C62.3146 87.6421 62.353 87.7281 62.4043 87.8214C62.4556 87.9157 62.511 88.0055 62.5711 88.0906C62.6305 88.1765 62.7075 88.2618 62.8015 88.3469C62.8955 88.4328 62.9978 88.5054 63.1092 88.5649C63.22 88.6246 63.3528 88.6801 63.5068 88.7314C63.6605 88.7831 63.8228 88.817 63.9938 88.8343C64.199 88.8509 64.3912 88.838 64.5706 88.7959C64.7498 88.7529 64.8912 88.6972 64.9935 88.6291C65.0961 88.5605 65.186 88.4798 65.2628 88.3854C65.3396 88.2915 65.3909 88.2062 65.4164 88.129C65.4422 88.0521 65.4635 87.9669 65.4808 87.8729C65.4974 87.779 65.5063 87.715 65.5063 87.6804V87.6035L65.5577 87.7317C65.5745 87.8176 65.6258 87.92 65.7112 88.0394C65.7966 88.1592 65.9038 88.279 66.0321 88.3983C66.1603 88.5183 66.3522 88.6203 66.6086 88.706C66.8651 88.7914 67.1511 88.8344 67.4678 88.8344C67.7835 88.8344 68.0867 88.7656 68.3777 88.6292C68.6681 88.4925 68.8941 88.3469 69.057 88.1933C69.2193 88.0394 69.3728 87.8601 69.5183 87.655C69.6634 87.4498 69.7534 87.3047 69.7877 87.2191C69.8218 87.1337 69.8474 87.0652 69.8645 87.0139C69.1637 87.3726 67.9673 86.2279 66.2754 83.5786L64.9425 81.3739L64.0963 79.656C66.0957 78.2548 67.5402 76.64 68.429 74.8106C68.8391 73.8539 69.0225 72.9995 68.9801 72.2471C68.9374 71.4951 68.7448 70.9055 68.4033 70.4783C67.8222 69.7602 66.9334 69.4015 65.7374 69.4015C64.4551 69.4015 63.4211 70.3244 62.6351 72.1703L62.7632 72.119C62.8658 72.0677 62.9812 72.0381 63.1094 72.0293C63.2375 72.0209 63.3741 72.0293 63.5196 72.0549C63.6646 72.0804 63.7928 72.1831 63.9042 72.3621C64.015 72.5418 64.0875 72.7854 64.1219 73.0931C64.2073 73.8967 64.1815 74.7299 64.0451 75.5929C63.9082 76.4562 63.5837 77.1525 63.0709 77.682C61.9941 75.563 61.2505 74.0928 60.8404 73.2724C60.6522 72.9134 60.5496 72.5847 60.5327 72.2854C60.5156 71.9868 60.5456 71.7601 60.6225 71.6061C60.6995 71.4524 60.8148 71.3203 60.9686 71.2088C61.1224 71.0979 61.2332 71.0293 61.3021 71.0036C61.3703 70.9779 61.4216 70.9569 61.4557 70.9396C61.3533 70.5641 61.2121 70.2519 61.0327 70.0037C60.8534 69.7564 60.6611 69.5853 60.4559 69.491C60.2507 69.3973 60.0284 69.346 59.7895 69.3372C59.7499 69.3358 59.7116 69.335 59.6736 69.335C59.4806 69.335 59.3056 69.353 59.1485 69.3884L59.1484 69.3889ZM62.5065 82.9059C62.4664 82.4302 62.7021 81.9685 63.0387 81.6457C63.3798 81.3267 63.6159 80.9228 63.6882 80.458C63.6896 80.9343 63.4239 81.3739 63.09 81.6947C62.7489 82.0141 62.5376 82.4373 62.5065 82.9058V82.9059ZM62.9937 83.7574C62.9537 83.2819 63.1892 82.8199 63.526 82.4973C63.867 82.1782 64.103 81.7744 64.1757 81.3095C64.1768 81.7858 63.9113 82.2256 63.5772 82.5464C63.236 82.8657 63.0247 83.2888 62.9937 83.7574ZM63.5351 84.7037C63.4948 84.228 63.7309 83.7662 64.0673 83.4435C64.4087 83.1245 64.6444 82.7203 64.7172 82.2557C64.7182 82.7321 64.4527 83.1717 64.1188 83.4925C63.7776 83.8117 63.5661 84.235 63.5351 84.7036V84.7037ZM64.0224 85.5552C63.9824 85.0796 64.2183 84.6177 64.5547 84.295C64.8958 83.976 65.1317 83.5722 65.2043 83.1073C65.2054 83.5836 64.9399 84.0233 64.6059 84.3441C64.2648 84.6634 64.0531 85.0865 64.0224 85.5551V85.5552ZM64.5639 86.5015C64.5239 86.0258 64.7594 85.564 65.0962 85.2413C65.4372 84.9223 65.6732 84.5184 65.7456 84.0535C65.747 84.5299 65.4814 84.9695 65.1473 85.2902C64.8062 85.6097 64.5949 86.0328 64.5639 86.5014V86.5015ZM59.7867 74.9197C59.7228 74.9445 59.6537 74.9586 59.5822 74.9602C59.4752 74.9627 59.364 74.9237 59.2757 74.8685C59.1915 74.8078 59.1151 74.7651 59.0237 74.7353C58.9334 74.7057 58.8362 74.6936 58.7343 74.6895C58.8296 74.6515 58.9367 74.6414 59.042 74.6576C59.148 74.6701 59.2483 74.7297 59.331 74.7793C59.4105 74.8329 59.4936 74.865 59.5874 74.8776C59.6448 74.8864 59.7044 74.8868 59.7656 74.8833L59.7132 74.792C59.5335 74.4733 59.346 74.1589 59.1693 73.8381C59.1179 73.8556 59.0629 73.8637 59.0064 73.8615C58.9199 73.858 58.834 73.8204 58.7657 73.7736C58.7006 73.7228 58.64 73.6853 58.5686 73.6574C58.498 73.6295 58.4206 73.6155 58.3389 73.609C58.4166 73.5814 58.5033 73.5777 58.5869 73.5955C58.6711 73.6107 58.7479 73.6613 58.8129 73.7039C58.9103 73.7805 59.0257 73.8075 59.1521 73.8071L59.0868 73.6864C58.8818 73.3153 58.6806 72.9422 58.4902 72.5629C58.7282 72.9144 58.9557 73.2721 59.179 73.6322C59.2087 73.6786 59.2382 73.7252 59.2673 73.772C59.3481 73.6457 59.3947 73.5156 59.3713 73.3743C59.3657 73.297 59.3584 73.2052 59.386 73.1241C59.4107 73.0424 59.4559 72.9683 59.5173 72.9138C59.4835 72.9881 59.4585 73.0626 59.4488 73.1381C59.4385 73.2141 59.4424 73.2852 59.4552 73.3668C59.4633 73.449 59.4544 73.5425 59.4157 73.6199C59.3821 73.6869 59.3333 73.7432 59.2749 73.7845C59.467 74.0933 59.6485 74.4084 59.8376 74.7193L59.9064 74.8342C59.9542 74.7638 59.997 74.6939 60.024 74.6197C60.0583 74.5316 60.0704 74.4432 60.0621 74.3476C60.0585 74.2513 60.0549 74.1347 60.0954 74.0359C60.1319 73.936 60.1927 73.8471 60.2719 73.7818C60.2262 73.8733 60.1898 73.9641 60.172 74.0575C60.154 74.1518 60.1545 74.2393 60.167 74.3422C60.1725 74.4463 60.1529 74.5626 60.0989 74.655C60.0525 74.7349 59.9895 74.8013 59.9163 74.8506C60.1059 75.1711 60.2861 75.4973 60.4714 75.8204L60.6079 76.0727C60.6614 75.9922 60.7087 75.912 60.7396 75.8273C60.7807 75.7159 60.7949 75.6063 60.7874 75.4862C60.7831 75.3657 60.7783 75.2195 60.829 75.0958C60.8749 74.9704 60.951 74.8593 61.05 74.7773C60.9931 74.892 60.9476 75.0059 60.9252 75.1229C60.9027 75.2411 60.9032 75.3506 60.9187 75.4798C60.929 75.6102 60.9035 75.7566 60.8333 75.8718C60.7794 75.9647 60.7079 76.0429 60.6245 76.1032C60.7747 76.382 60.9226 76.6621 61.0606 76.948C60.8792 76.6887 60.7079 76.4238 60.5386 76.1574C60.433 76.2174 60.3119 76.252 60.1846 76.2546C60.0502 76.26 59.9095 76.2117 59.8005 76.1396C59.6949 76.0636 59.5994 76.0101 59.4846 75.9725C59.372 75.9354 59.2497 75.9203 59.1219 75.915C59.2418 75.8677 59.3757 75.8548 59.5075 75.8753C59.6404 75.8907 59.7661 75.9658 59.8697 76.0277C59.9706 76.0922 60.0738 76.1328 60.1912 76.1507C60.2998 76.1677 60.4144 76.1601 60.5329 76.1484L60.3649 75.883C60.1723 75.5615 59.9746 75.2434 59.7865 74.9194L59.7867 74.9197Z" fill="white"/>
<path fill-rule="evenodd" clip-rule="evenodd" d="M77.3019 69.3843H77.2948C77.1436 69.3848 77.0007 69.4018 76.8665 69.4355C76.7292 69.4699 76.6137 69.5083 76.52 69.551C76.4261 69.5938 76.3364 69.6493 76.2507 69.7175C76.1654 69.786 76.1012 69.8502 76.0588 69.9098C76.016 69.97 75.9728 70.0297 75.9306 70.0891C75.8876 70.1492 75.8618 70.1917 75.8536 70.2175C75.8447 70.2433 75.832 70.2647 75.8154 70.2817L75.7127 70.0507C75.6269 69.8971 75.4604 69.7476 75.2129 69.6023C74.9647 69.4572 74.6783 69.3844 74.3537 69.3844C74.029 69.3844 73.7083 69.4657 73.3925 69.6278C73.0759 69.7906 72.867 69.9188 72.7644 70.0124C72.6618 70.1064 72.5848 70.1878 72.5337 70.2561L72.713 70.3841C72.8498 70.4701 73.0078 70.6277 73.1873 70.8587C73.367 71.0891 73.5464 71.3672 73.7257 71.6916C73.905 72.0165 74.059 72.4653 74.187 73.0374C74.3154 73.6105 74.3796 74.234 74.3796 74.909C74.3796 75.5844 74.3195 76.191 74.2 76.7294C74.0801 77.2676 73.9475 77.6821 73.8026 77.9727C73.6572 78.2635 73.4904 78.5112 73.3027 78.7164C73.1145 78.9212 72.9824 79.0452 72.9056 79.0879C72.8282 79.1309 72.7729 79.1609 72.7388 79.1777L72.8924 79.2802C73.012 79.3315 73.1526 79.4558 73.3153 79.6518C73.4778 79.8488 73.6357 80.0919 73.7898 80.3825C73.9437 80.6733 74.0801 81.0873 74.1999 81.6261C74.3195 82.1644 74.3795 82.7713 74.3795 83.4462C74.3795 84.1216 74.3107 84.7453 74.1743 85.3178C74.0372 85.8905 73.8877 86.3346 73.7256 86.6507C73.5631 86.9673 73.3794 87.2492 73.1742 87.4965C72.9691 87.7447 72.8237 87.9028 72.7386 87.9711C72.6527 88.0395 72.5846 88.0821 72.5334 88.0991L72.7386 88.3301C72.875 88.4671 73.0975 88.6075 73.4052 88.7531C73.7127 88.8981 74.0288 88.9708 74.3535 88.9708C74.678 88.9708 74.9691 88.8894 75.2252 88.7272C75.4816 88.5644 75.6393 88.4324 75.6995 88.33C75.7594 88.2275 75.7978 88.1418 75.8152 88.0735L75.9434 88.3042C76.0284 88.4581 76.1949 88.6074 76.4431 88.753C76.6905 88.898 76.9772 88.9707 77.3018 88.9707C77.6262 88.9707 77.9468 88.8893 78.2634 88.7271C78.5795 88.5643 78.7887 88.4365 78.8915 88.3425C78.9938 88.2488 79.0709 88.1674 79.1221 88.0989L79.0454 88.0734C79.0108 88.0394 78.9595 87.9923 78.8915 87.9325C78.8231 87.8729 78.7417 87.7959 78.6477 87.7016C78.5537 87.6079 78.4558 87.4882 78.3529 87.3428C78.2506 87.1978 78.148 87.0396 78.0454 86.8683C77.9428 86.6978 77.8443 86.4926 77.7509 86.2531C77.6566 86.0142 77.575 85.7578 77.507 85.4841C77.4386 85.2106 77.3829 84.8986 77.3402 84.5482C77.2974 84.1979 77.2764 83.8264 77.2764 83.433C77.2764 82.7667 77.336 82.1601 77.456 81.6129C77.575 81.0659 77.7079 80.6515 77.8531 80.3693C77.9981 80.0873 78.1646 79.8438 78.3529 79.639C78.541 79.4338 78.6736 79.3099 78.7506 79.267C78.8274 79.2246 78.8824 79.1949 78.9172 79.1773L78.7633 79.1005C78.6434 79.0324 78.5025 78.8997 78.3403 78.7031C78.1776 78.5068 78.0155 78.2632 77.8532 77.9724C77.6908 77.6818 77.5541 77.2672 77.4429 76.7291C77.3316 76.1907 77.2765 75.5796 77.2765 74.896C77.2765 74.4005 77.3105 73.9346 77.379 73.4987C77.447 73.0629 77.533 72.6956 77.6352 72.3962C77.7376 72.0976 77.8615 71.8157 78.007 71.5504C78.1521 71.2856 78.2801 71.0805 78.3916 70.9351C78.5024 70.7901 78.6223 70.6575 78.7506 70.5377C78.8788 70.4184 78.9641 70.3454 79.0067 70.3199C79.0493 70.2942 79.0876 70.2729 79.1221 70.2559L78.917 70.0252C78.7632 69.8884 78.5365 69.7475 78.2377 69.6022C77.9385 69.4571 77.6263 69.3843 77.3018 69.3843H77.3019ZM74.9007 74.1757C74.9734 74.2748 75.0487 74.3704 75.1266 74.4626C75.3522 74.3677 75.5662 74.2566 75.7697 74.1299C75.4194 73.8506 75.1409 73.4824 74.9926 73.0659C75.2645 73.4358 75.5712 73.7596 75.9175 74.0338C76.278 73.7895 76.6038 73.4942 76.8997 73.1517C76.7219 73.5497 76.4218 73.8906 76.058 74.1408C76.2578 74.2869 76.4704 74.4173 76.6964 74.5312C76.736 74.4881 76.7751 74.4442 76.8136 74.3996C76.7905 74.4515 76.7652 74.5022 76.7381 74.552C76.8166 74.5907 76.8968 74.6273 76.9786 74.6621C76.8873 74.6491 76.7967 74.6306 76.7072 74.6068C76.546 74.8833 76.3243 75.1261 76.0655 75.3214C76.2632 75.458 76.4729 75.5797 76.6955 75.686C76.7512 75.6269 76.806 75.5661 76.8598 75.5038C76.8279 75.5754 76.7919 75.645 76.7524 75.7126C76.7966 75.733 76.8414 75.7529 76.8866 75.772C76.8352 75.7648 76.7842 75.7558 76.7332 75.7449C76.5541 76.04 76.306 76.2949 76.018 76.493C76.2991 76.6985 76.6051 76.8728 76.9385 77.0143C76.5597 76.9607 76.191 76.8094 75.8708 76.5872C75.5299 76.7899 75.144 76.9158 74.7555 76.9399C75.1052 76.8228 75.4291 76.6696 75.7298 76.4822C75.483 76.2853 75.2718 76.0444 75.1168 75.7734C74.9824 75.8061 74.8461 75.8272 74.7093 75.8358C74.8343 75.7939 74.9559 75.7474 75.0746 75.6964C75.0276 75.6064 74.9868 75.5136 74.9528 75.4181C75.0152 75.503 75.0795 75.5854 75.1455 75.6652C75.3678 75.565 75.5788 75.4487 75.7793 75.3168C75.4956 75.112 75.2523 74.8509 75.0772 74.5524C74.9838 74.5699 74.8897 74.5818 74.7954 74.5877C74.8803 74.5593 74.9636 74.5288 75.0453 74.4962C74.9888 74.3933 74.9402 74.2863 74.9009 74.1757H74.9007ZM75.8773 76.3859C76.1569 76.1964 76.4158 75.9762 76.6558 75.727C76.401 75.6639 76.1548 75.5581 75.9291 75.4174C75.7087 75.5628 75.4663 75.6751 75.2146 75.7474C75.4178 75.9831 75.6381 76.1964 75.8773 76.386V76.3859ZM76.6425 74.5884C76.3835 74.5116 76.1352 74.3909 75.9106 74.2349C75.6842 74.3696 75.4378 74.4704 75.1841 74.5298C75.4086 74.7871 75.6539 75.0172 75.9224 75.2184C76.1798 75.0346 76.4193 74.8242 76.6425 74.5884ZM74.9005 82.5001C74.9733 82.5991 75.0487 82.6948 75.1265 82.7871C75.3522 82.6921 75.5662 82.5809 75.7696 82.4543C75.4193 82.1749 75.1408 81.8067 74.9925 81.3902C75.2644 81.7601 75.5711 82.0841 75.9174 82.3582C76.2779 82.1138 76.6037 81.8185 76.8996 81.476C76.7218 81.8739 76.4217 82.215 76.0579 82.4651C76.2577 82.6112 76.4702 82.7415 76.6963 82.8556C76.7359 82.8125 76.775 82.7685 76.8135 82.724C76.7904 82.7758 76.7652 82.8266 76.738 82.8763C76.8165 82.9149 76.8967 82.9517 76.9784 82.9864C76.8871 82.9734 76.7966 82.9549 76.7071 82.9311C76.5459 83.2077 76.3242 83.4505 76.0654 83.6457C76.2631 83.7823 76.4728 83.9041 76.6953 84.0103C76.7511 83.9512 76.8059 83.8904 76.8597 83.8282C76.8277 83.8997 76.7918 83.9694 76.7522 84.037C76.7965 84.0575 76.8413 84.0772 76.8865 84.0964C76.8351 84.0891 76.784 84.0801 76.7331 84.0693C76.554 84.3643 76.306 84.6194 76.018 84.8173C76.299 85.0227 76.605 85.197 76.9384 85.3385C76.5596 85.285 76.1909 85.1337 75.8707 84.9115C75.5299 85.1141 75.1439 85.24 74.7554 85.2641C75.1051 85.147 75.4289 84.9939 75.7296 84.8065C75.4828 84.6095 75.2718 84.3688 75.1167 84.0978C74.9823 84.1304 74.846 84.1516 74.7092 84.1601C74.8342 84.1182 74.9558 84.0717 75.0745 84.0207C75.0275 83.9308 74.9867 83.8379 74.9527 83.7424C75.0151 83.8273 75.0793 83.9096 75.1454 83.9895C75.3677 83.8894 75.5787 83.7731 75.7792 83.6411C75.4955 83.4363 75.2522 83.1752 75.0771 82.8768C74.9838 82.8942 74.8896 82.9061 74.7953 82.912C74.8802 82.8836 74.9634 82.8531 75.0452 82.8205C74.9887 82.7176 74.9401 82.6107 74.9008 82.5001H74.9005ZM75.8772 84.7102C76.1568 84.5208 76.4156 84.3006 76.6557 84.0514C76.401 83.9883 76.1548 83.8823 75.929 83.7416C75.7086 83.887 75.4662 83.9993 75.2145 84.0716C75.4176 84.3074 75.6379 84.5206 75.8772 84.7102ZM76.6424 82.9128C76.3834 82.8359 76.135 82.7152 75.9105 82.5593C75.684 82.6939 75.4376 82.7946 75.1839 82.854C75.4083 83.1113 75.6538 83.3415 75.9224 83.5427C76.1798 83.3589 76.4192 83.1484 76.6424 82.9128Z" fill="white"/>
<path fill-rule="evenodd" clip-rule="evenodd" d="M95.3692 69.6568H95.3605C95.1754 69.6577 94.9991 69.6832 94.8309 69.7336C94.6599 69.785 94.5144 69.845 94.3953 69.913C94.2752 69.9817 94.16 70.0669 94.0489 70.1694C93.9378 70.2719 93.8523 70.3663 93.7928 70.4514C93.7326 70.5373 93.6773 70.627 93.626 70.7207C93.5747 70.8147 93.5401 70.8789 93.5234 70.913C93.5063 70.9474 93.4979 70.9729 93.4979 70.9898C93.4979 70.7678 93.3442 70.4897 93.0364 70.1566C92.7287 69.8233 92.361 69.6568 91.9341 69.6568C91.6432 69.6568 91.3574 69.7296 91.0753 69.8745C90.7931 70.0201 90.6094 70.1399 90.524 70.2333C90.4384 70.3276 90.3701 70.4001 90.3188 70.4514C90.5922 70.4514 90.8354 70.5155 91.0495 70.6439C91.2633 70.7721 91.4252 70.9301 91.5365 71.1179C91.6474 71.3063 91.7329 71.5327 91.7927 71.7972C91.8525 72.0627 91.8912 72.3019 91.9085 72.5152C91.9251 72.7293 91.9297 72.9553 91.9211 73.1945C91.9125 73.434 91.8993 73.5921 91.8826 73.6688C91.8656 73.7456 91.8572 73.81 91.8572 73.8611L89.5752 83.9362L87.2683 73.8611L87.2425 73.5023C87.208 73.2803 87.2038 73.0023 87.2296 72.6691C87.2552 72.3359 87.3068 72.0026 87.3835 71.669C87.4602 71.3359 87.6225 71.0498 87.8706 70.8103C88.1182 70.5714 88.4303 70.4512 88.8062 70.4512L88.6268 70.2461C88.4899 70.1096 88.2893 69.977 88.0245 69.8489C87.7593 69.7208 87.4816 69.6566 87.1911 69.6566C86.7637 69.6566 86.3965 69.8231 86.0891 70.1564C85.7814 70.4895 85.6275 70.7676 85.6275 70.9896L85.5762 70.8614C85.5418 70.7589 85.4776 70.6437 85.3838 70.5153C85.2897 70.3872 85.1745 70.2552 85.0381 70.1179C84.9008 69.9814 84.7174 69.8706 84.4868 69.7846C84.2594 69.7006 84.0202 69.6579 83.7679 69.6565H83.7558C83.3458 69.6565 82.9652 69.7292 82.6151 69.8742C82.2646 70.0197 82.0467 70.1395 81.9613 70.233C81.8762 70.3273 81.8076 70.3998 81.7561 70.451L81.9102 70.5024C82.03 70.537 82.1794 70.6179 82.3586 70.7459C82.5382 70.8744 82.7259 71.0451 82.9228 71.2588C83.1191 71.4729 83.3242 71.8016 83.5379 72.246C83.7515 72.6907 83.9354 73.2032 84.0893 73.7841C84.1918 74.1941 84.2644 74.6087 84.3071 75.0274C84.3495 75.4462 84.3624 75.8137 84.3454 76.1299C84.3282 76.4462 84.294 76.7581 84.2429 77.0655C84.1918 77.3733 84.1407 77.6257 84.0893 77.8219C84.0379 78.0185 83.9779 78.2062 83.9096 78.3857C83.8415 78.5651 83.7945 78.6806 83.769 78.732C83.7432 78.7832 83.7215 78.8258 83.7046 78.86L83.8584 78.8855C83.961 78.903 84.0977 78.9714 84.2687 79.0907C84.4392 79.2108 84.619 79.3729 84.8072 79.5778C84.9948 79.7829 85.1873 80.0995 85.3838 80.5264C85.5803 80.954 85.747 81.4582 85.8839 82.0391C86.3621 84.0733 86.7384 86.3804 87.012 88.9609H92.1135L92.1652 88.5506C92.1989 88.2603 92.2458 87.8713 92.3059 87.3844C92.3655 86.8971 92.4379 86.3675 92.5238 85.7947C92.6092 85.2222 92.7161 84.594 92.8442 83.9104C92.9724 83.227 93.1047 82.5989 93.2416 82.0261C93.3781 81.4539 93.5494 80.9539 93.7544 80.5264C93.9598 80.0994 94.1474 79.7828 94.3182 79.5778C94.489 79.3728 94.6729 79.2107 94.8695 79.0907C95.0658 78.9714 95.1984 78.9031 95.267 78.8855C95.3352 78.8689 95.3954 78.86 95.4466 78.86L95.1644 78.219C94.9761 77.792 94.8569 77.2028 94.8055 76.4503C94.7542 75.6984 94.8396 74.8097 95.0619 73.7841C95.1983 73.2032 95.378 72.6907 95.6004 72.246C95.8222 71.8015 96.0233 71.4728 96.2027 71.2588C96.3819 71.0451 96.5745 70.8703 96.7794 70.7335C96.9844 70.5968 97.1256 70.5199 97.2024 70.5025C97.2793 70.4859 97.3347 70.4685 97.3691 70.4511L97.1894 70.246C97.0525 70.1095 96.8179 69.9769 96.4846 69.8488C96.1513 69.7207 95.7797 69.6565 95.3694 69.6565L95.3692 69.6568ZM85.5208 72.5597C85.7238 73.2288 85.8581 73.9206 85.8852 74.6201C85.6678 73.9588 85.5603 73.2564 85.5208 72.5597ZM86.2383 76.0085C86.4413 76.6775 86.5756 77.3694 86.6026 78.0689C86.3849 77.4076 86.2777 76.7051 86.2383 76.0085ZM86.2457 74.9163C86.445 74.6311 86.6499 74.3748 86.9007 74.1329C86.7741 74.4536 86.5363 74.7382 86.2457 74.9163ZM85.7507 74.9368C85.4272 74.8142 85.1385 74.5972 84.9468 74.3071C85.2403 74.4916 85.5048 74.698 85.7507 74.9368ZM86.5215 75.23C86.8038 75.092 87.1075 75.0362 87.4204 75.0362C87.1422 75.1593 86.817 75.2641 86.5215 75.23ZM84.7937 75.4084C85.0694 75.2838 85.4053 75.1896 85.6936 75.2202C85.4135 75.3384 85.0884 75.4407 84.7937 75.4084ZM86.2793 75.5685C86.6931 75.43 87.1357 75.6692 87.4375 75.9415C87.0508 75.7894 86.6762 75.617 86.2793 75.5685ZM85.9357 75.6648C85.5429 75.8342 85.3034 76.1468 84.9797 76.4126C85.1642 76.0515 85.5001 75.6718 85.9357 75.6648ZM93.6266 72.7767C93.6191 73.4759 93.5393 74.1761 93.3548 74.8512C93.346 74.1548 93.4548 73.453 93.6266 72.7767ZM93.2743 76.2817C93.2668 76.9809 93.1868 77.681 93.0026 78.3563C92.9937 77.6599 93.1024 76.9579 93.2743 76.2817ZM93.6097 75.2422C93.8855 75.0301 94.1578 74.8472 94.4698 74.692C94.2529 74.9599 93.9403 75.1594 93.6097 75.2422ZM93.1315 75.1129C92.86 74.8986 92.6494 74.6049 92.5541 74.2709C92.7784 74.5349 92.9689 74.8117 93.1315 75.1129ZM93.7785 75.6242C94.0892 75.5775 94.3956 75.6153 94.6942 75.7096C94.3915 75.7434 94.0503 75.7455 93.7785 75.6242ZM92.0769 75.275C92.3775 75.239 92.7261 75.25 92.9918 75.3661C92.6894 75.3946 92.3486 75.3943 92.0769 75.275ZM93.4459 75.8743C93.8822 75.8666 94.2323 76.2277 94.4383 76.5781C94.115 76.3169 93.8096 76.0401 93.4459 75.8743ZM93.0891 75.8629C92.6633 75.9066 92.3412 76.1324 91.9526 76.2887C92.2369 75.9998 92.6714 75.7388 93.0891 75.8629Z" fill="white"/>
</svg>
